<svg xmlns="http://www.w3.org/2000/svg" xmlns:xlink="http://www.w3.org/1999/xlink" width="500" zoomAndPan="magnify" viewBox="0 0 375 374.999991" height="500" preserveAspectRatio="xMidYMid meet" version="1.0"><defs><clipPath id="62945fd133"><path d="M 220 261 L 356.496094 261 L 356.496094 303 L 220 303 Z M 220 261 " clip-rule="nonzero"/></clipPath><clipPath id="6bc7bc828e"><path d="M 349 211 L 356.496094 211 L 356.496094 254 L 349 254 Z M 349 211 " clip-rule="nonzero"/></clipPath><clipPath id="b88a7d6ac6"><path d="M 0.375 0 L 356.496094 0 L 356.496094 375 L 0.375 375 Z M 0.375 0 " clip-rule="nonzero"/></clipPath><clipPath id="38e333b423"><path d="M 277 202 L 318 202 L 318 274.195312 L 277 274.195312 Z M 277 202 " clip-rule="nonzero"/></clipPath><clipPath id="d1a10aeaa5"><path d="M 250 251 L 255 251 L 255 274.195312 L 250 274.195312 Z M 250 251 " clip-rule="nonzero"/></clipPath><clipPath id="0e4d8c7e69"><path d="M 227 202 L 267 202 L 267 274.195312 L 227 274.195312 Z M 227 202 " clip-rule="nonzero"/></clipPath><clipPath id="ecb28025f9"><path d="M 223.960938 180 L 250 180 L 250 213 L 223.960938 213 Z M 223.960938 180 " clip-rule="nonzero"/></clipPath><clipPath id="0c0b271e5e"><path d="M 296 183 L 322.269531 183 L 322.269531 216 L 296 216 Z M 296 183 " clip-rule="nonzero"/></clipPath><clipPath id="e43a93a56e"><path d="M 257 172.632812 L 289 172.632812 L 289 211 L 257 211 Z M 257 172.632812 " clip-rule="nonzero"/></clipPath><clipPath id="6c201efad1"><rect x="0" width="357" y="0" height="375"/></clipPath></defs><g transform="matrix(1, 0, 0, 1, 9, 0)"><g clip-path="url(#6c201efad1)"><g clip-path="url(#62945fd133)"><path fill="#f8fafc" d="M 352.898438 261.394531 C 350.894531 261.394531 349.273438 263.015625 349.273438 265.019531 L 349.273438 294.820312 L 223.777344 294.820312 C 221.769531 294.820312 220.152344 296.441406 220.152344 298.445312 C 220.152344 300.449219 221.769531 302.070312 223.777344 302.070312 L 352.898438 302.070312 C 354.902344 302.070312 356.523438 300.449219 356.523438 298.445312 L 356.523438 265.011719 C 356.523438 263.007812 354.902344 261.386719 352.898438 261.386719 Z M 352.898438 261.394531 " fill-opacity="1" fill-rule="nonzero"/></g><g clip-path="url(#6bc7bc828e)"><path fill="#f8fafc" d="M 352.898438 211.003906 C 350.894531 211.003906 349.273438 212.621094 349.273438 214.625 L 349.273438 249.558594 C 349.273438 251.5625 350.894531 253.183594 352.898438 253.183594 C 354.902344 253.183594 356.523438 251.5625 356.523438 249.558594 L 356.523438 214.625 C 356.523438 212.621094 354.902344 211.003906 352.898438 211.003906 Z M 352.898438 211.003906 " fill-opacity="1" fill-rule="nonzero"/></g><g clip-path="url(#b88a7d6ac6)"><path fill="#f8fafc" d="M 352.898438 -0.015625 L 58.0625 -0.015625 C 56.054688 -0.015625 54.4375 1.601562 54.4375 3.609375 L 54.4375 138.816406 C 48.234375 132.976562 38.445312 133.082031 32.382812 139.144531 C 29.386719 142.136719 27.734375 146.121094 27.734375 150.351562 C 27.734375 154.582031 29.386719 158.566406 32.382812 161.558594 L 68.113281 197.292969 C 65.539062 198.355469 62.945312 200.113281 60.679688 202.390625 C 54.289062 208.777344 52.570312 216.695312 56.679688 220.8125 L 78.683594 242.816406 L 78.683594 270.6875 L 64.703125 284.667969 C 63.289062 286.085938 63.289062 288.382812 64.703125 289.796875 C 66.117188 291.214844 68.417969 291.214844 69.832031 289.796875 L 82.308594 277.324219 L 98.152344 293.167969 L 26.851562 364.472656 C 22.605469 368.71875 15.808594 368.871094 11.375 364.824219 C 9.089844 362.738281 7.800781 359.890625 7.726562 356.804688 C 7.652344 353.722656 8.820312 350.816406 11.003906 348.632812 L 59.625 300.015625 C 61.039062 298.601562 61.039062 296.300781 59.625 294.886719 C 58.207031 293.472656 55.910156 293.472656 54.492188 294.886719 L 5.875 343.503906 C 2.277344 347.105469 0.363281 351.890625 0.476562 356.96875 C 0.589844 362.058594 2.726562 366.753906 6.480469 370.179688 C 10.023438 373.414062 14.472656 375.015625 18.925781 375.015625 C 23.652344 375.015625 28.375 373.199219 31.972656 369.601562 L 104.78125 296.792969 L 132.652344 296.792969 L 153.765625 317.90625 C 155.269531 319.414062 157.285156 320.132812 159.550781 320.132812 C 163.46875 320.132812 168.140625 317.957031 172.1875 313.90625 C 174.453125 311.640625 176.222656 309.046875 177.285156 306.472656 L 213.011719 342.195312 C 216.003906 345.191406 219.988281 346.84375 224.21875 346.84375 C 228.445312 346.84375 232.429688 345.191406 235.425781 342.195312 C 238.417969 339.203125 240.070312 335.21875 240.070312 330.988281 C 240.070312 326.757812 238.417969 322.773438 235.425781 319.78125 L 61.683594 146.039062 L 61.683594 7.238281 L 349.273438 7.238281 L 349.273438 196.203125 C 349.273438 198.207031 350.894531 199.828125 352.898438 199.828125 C 354.902344 199.828125 356.523438 198.207031 356.523438 196.203125 L 356.523438 3.617188 C 356.523438 1.613281 354.902344 -0.0078125 352.898438 -0.0078125 Z M 104.773438 289.535156 L 85.925781 270.6875 L 85.925781 250.074219 L 125.386719 289.535156 Z M 167.050781 308.777344 C 163.050781 312.777344 159.433594 313.195312 158.886719 312.777344 L 61.800781 215.691406 C 61.332031 215.085938 61.988281 211.339844 65.800781 207.527344 C 69.800781 203.535156 73.414062 203.109375 73.964844 203.527344 C 74.300781 203.859375 74.683594 204.113281 75.101562 204.285156 L 170.289062 299.476562 C 170.472656 299.886719 170.714844 300.277344 171.050781 300.613281 C 171.46875 301.160156 171.050781 304.785156 167.050781 308.777344 Z M 230.296875 324.910156 C 231.914062 326.539062 232.816406 328.6875 232.816406 330.988281 C 232.816406 333.285156 231.921875 335.445312 230.296875 337.066406 C 228.667969 338.6875 226.507812 339.585938 224.21875 339.585938 C 221.925781 339.585938 219.757812 338.695312 218.140625 337.066406 L 37.503906 156.4375 C 35.882812 154.808594 34.984375 152.660156 34.984375 150.359375 C 34.984375 148.0625 35.875 145.902344 37.503906 144.28125 C 40.855469 140.925781 46.3125 140.925781 49.667969 144.28125 Z M 230.296875 324.910156 " fill-opacity="1" fill-rule="nonzero"/></g><path fill="#f8fafc" d="M 103.273438 122.03125 C 104.199219 122.03125 105.132812 121.679688 105.835938 120.96875 L 165.308594 61.492188 C 166.722656 60.078125 166.722656 57.78125 165.308594 56.363281 C 163.894531 54.949219 161.59375 54.949219 160.179688 56.363281 L 100.707031 115.835938 C 99.292969 117.253906 99.292969 119.550781 100.707031 120.96875 C 101.417969 121.679688 102.34375 122.03125 103.265625 122.03125 Z M 103.273438 122.03125 " fill-opacity="1" fill-rule="nonzero"/><path fill="#f8fafc" d="M 100.707031 156.863281 C 101.417969 157.574219 102.34375 157.925781 103.265625 157.925781 C 104.191406 157.925781 105.125 157.574219 105.828125 156.863281 L 226.589844 36.101562 C 228.003906 34.6875 228.003906 32.386719 226.589844 30.972656 C 225.175781 29.554688 222.875 29.554688 221.460938 30.972656 L 100.699219 151.734375 C 99.28125 153.148438 99.28125 155.449219 100.699219 156.863281 Z M 100.707031 156.863281 " fill-opacity="1" fill-rule="nonzero"/><g clip-path="url(#38e333b423)"><path fill="#f8fafc" d="M 315.894531 231.277344 L 295.289062 231.277344 L 295.289062 204.335938 C 295.289062 203.457031 294.578125 202.75 293.703125 202.75 L 281.023438 202.75 C 280.148438 202.75 279.4375 203.457031 279.4375 204.335938 C 279.4375 205.210938 280.148438 205.917969 281.023438 205.917969 L 292.117188 205.917969 L 292.117188 231.277344 L 279.4375 231.277344 C 278.5625 231.277344 277.855469 231.988281 277.855469 232.863281 L 277.855469 272.488281 C 277.855469 273.367188 278.5625 274.074219 279.4375 274.074219 C 280.3125 274.074219 281.023438 273.367188 281.023438 272.488281 L 281.023438 234.449219 L 314.308594 234.449219 L 314.308594 272.488281 C 314.308594 273.367188 315.019531 274.074219 315.894531 274.074219 C 316.769531 274.074219 317.480469 273.367188 317.480469 272.488281 L 317.480469 232.863281 C 317.480469 231.988281 316.769531 231.277344 315.894531 231.277344 Z M 315.894531 231.277344 " fill-opacity="1" fill-rule="nonzero"/></g><g clip-path="url(#d1a10aeaa5)"><path fill="#f8fafc" d="M 252.492188 251.882812 C 251.617188 251.882812 250.910156 252.59375 250.910156 253.46875 L 250.910156 272.488281 C 250.910156 273.367188 251.617188 274.074219 252.492188 274.074219 C 253.367188 274.074219 254.078125 273.367188 254.078125 272.488281 L 254.078125 253.46875 C 254.078125 252.59375 253.367188 251.882812 252.492188 251.882812 Z M 252.492188 251.882812 " fill-opacity="1" fill-rule="nonzero"/></g><g clip-path="url(#0e4d8c7e69)"><path fill="#f8fafc" d="M 266.757812 204.335938 C 266.757812 203.457031 266.050781 202.75 265.171875 202.75 L 252.492188 202.75 C 251.617188 202.75 250.910156 203.457031 250.910156 204.335938 L 250.910156 218.597656 L 228.71875 218.597656 C 227.84375 218.597656 227.132812 219.308594 227.132812 220.183594 L 227.132812 272.488281 C 227.132812 273.367188 227.84375 274.074219 228.71875 274.074219 C 229.59375 274.074219 230.304688 273.367188 230.304688 272.488281 L 230.304688 221.769531 L 250.910156 221.769531 L 250.910156 240.789062 C 250.910156 241.664062 251.617188 242.375 252.492188 242.375 C 253.367188 242.375 254.078125 241.664062 254.078125 240.789062 L 254.078125 205.917969 L 265.171875 205.917969 C 266.050781 205.917969 266.757812 205.210938 266.757812 204.335938 Z M 266.757812 204.335938 " fill-opacity="1" fill-rule="nonzero"/></g><g clip-path="url(#ecb28025f9)"><path fill="#f8fafc" d="M 235.121094 211.109375 C 235.3125 211.789062 235.9375 212.257812 236.644531 212.257812 C 237.351562 212.257812 237.972656 211.789062 238.167969 211.109375 L 241.125 200.761719 L 248.328125 197.882812 C 248.929688 197.640625 249.324219 197.058594 249.324219 196.410156 C 249.324219 195.761719 248.929688 195.179688 248.328125 194.9375 L 241.125 192.054688 L 238.167969 181.707031 C 237.972656 181.027344 237.351562 180.558594 236.644531 180.558594 C 235.9375 180.558594 235.3125 181.027344 235.121094 181.707031 L 232.164062 192.054688 L 224.960938 194.9375 C 224.359375 195.179688 223.964844 195.761719 223.964844 196.410156 C 223.964844 197.058594 224.359375 197.640625 224.960938 197.882812 L 232.164062 200.761719 Z M 234.0625 194.710938 C 234.519531 194.527344 234.863281 194.144531 234.996094 193.675781 L 236.644531 187.914062 L 238.289062 193.675781 C 238.425781 194.144531 238.769531 194.527344 239.226562 194.710938 L 243.472656 196.410156 L 239.226562 198.105469 C 238.769531 198.289062 238.425781 198.671875 238.289062 199.144531 L 236.644531 204.902344 L 234.996094 199.144531 C 234.863281 198.671875 234.519531 198.289062 234.0625 198.105469 L 229.816406 196.410156 Z M 234.0625 194.710938 " fill-opacity="1" fill-rule="nonzero"/></g><g clip-path="url(#0c0b271e5e)"><path fill="#f8fafc" d="M 321.238281 198.105469 L 314.035156 195.226562 L 311.078125 184.878906 C 310.882812 184.199219 310.261719 183.730469 309.554688 183.730469 C 308.847656 183.730469 308.222656 184.199219 308.03125 184.878906 L 305.074219 195.226562 L 297.871094 198.105469 C 297.269531 198.347656 296.875 198.929688 296.875 199.578125 C 296.875 200.226562 297.269531 200.808594 297.871094 201.050781 L 305.074219 203.933594 L 308.03125 214.28125 C 308.222656 214.960938 308.847656 215.429688 309.554688 215.429688 C 310.261719 215.429688 310.882812 214.960938 311.078125 214.28125 L 314.035156 203.933594 L 321.238281 201.050781 C 321.839844 200.808594 322.234375 200.226562 322.234375 199.578125 C 322.234375 198.929688 321.839844 198.347656 321.238281 198.105469 Z M 312.136719 201.277344 C 311.679688 201.460938 311.335938 201.84375 311.199219 202.3125 L 309.554688 208.074219 L 307.90625 202.3125 C 307.773438 201.84375 307.429688 201.460938 306.972656 201.277344 L 302.726562 199.578125 L 306.972656 197.882812 C 307.429688 197.699219 307.773438 197.316406 307.90625 196.84375 L 309.554688 191.082031 L 311.199219 196.84375 C 311.335938 197.316406 311.679688 197.699219 312.136719 197.882812 L 316.382812 199.578125 Z M 312.136719 201.277344 " fill-opacity="1" fill-rule="nonzero"/></g><g clip-path="url(#e43a93a56e)"><path fill="#f8fafc" d="M 276.375 204.890625 L 279.121094 197.546875 L 288.074219 193.070312 C 288.609375 192.804688 288.949219 192.253906 288.949219 191.652344 C 288.949219 191.054688 288.609375 190.503906 288.074219 190.234375 L 279.121094 185.757812 L 274.582031 173.664062 C 274.351562 173.042969 273.757812 172.632812 273.097656 172.632812 C 272.4375 172.632812 271.847656 173.042969 271.613281 173.664062 L 267.078125 185.757812 L 258.125 190.234375 C 257.585938 190.503906 257.25 191.054688 257.25 191.652344 C 257.25 192.253906 257.585938 192.804688 258.125 193.070312 L 267.078125 197.550781 L 271.613281 209.644531 C 271.84375 210.261719 272.433594 210.671875 273.097656 210.675781 C 273.757812 210.675781 274.347656 210.265625 274.582031 209.648438 L 276.375 204.894531 C 276.375 204.890625 276.375 204.890625 276.375 204.890625 Z M 273.105469 204.574219 L 269.828125 195.851562 C 269.6875 195.476562 269.410156 195.171875 269.050781 194.992188 L 262.378906 191.652344 L 269.050781 188.316406 C 269.410156 188.136719 269.6875 187.828125 269.828125 187.457031 L 273.097656 178.734375 L 276.371094 187.457031 C 276.511719 187.828125 276.789062 188.136719 277.144531 188.316406 L 283.820312 191.652344 L 277.144531 194.992188 C 276.785156 195.171875 276.507812 195.480469 276.371094 195.855469 Z M 273.105469 204.574219 " fill-opacity="1" fill-rule="nonzero"/></g><path fill="#f8fafc" d="M 271.515625 228.109375 L 262.003906 228.109375 C 261.128906 228.109375 260.417969 228.816406 260.417969 229.695312 L 260.417969 239.203125 C 260.417969 240.082031 261.128906 240.789062 262.003906 240.789062 L 271.515625 240.789062 C 272.390625 240.789062 273.097656 240.082031 273.097656 239.203125 L 273.097656 229.695312 C 273.097656 228.816406 272.390625 228.109375 271.515625 228.109375 Z M 269.929688 237.621094 L 263.589844 237.621094 L 263.589844 231.277344 L 269.929688 231.277344 Z M 269.929688 237.621094 " fill-opacity="1" fill-rule="nonzero"/><path fill="#f8fafc" d="M 298.457031 242.375 C 298.457031 241.5 297.75 240.789062 296.875 240.789062 L 287.363281 240.789062 C 286.488281 240.789062 285.777344 241.5 285.777344 242.375 L 285.777344 251.882812 C 285.777344 252.761719 286.488281 253.46875 287.363281 253.46875 L 296.875 253.46875 C 297.75 253.46875 298.457031 252.761719 298.457031 251.882812 Z M 295.289062 250.300781 L 288.949219 250.300781 L 288.949219 243.960938 L 295.289062 243.960938 Z M 295.289062 250.300781 " fill-opacity="1" fill-rule="nonzero"/><path fill="#f8fafc" d="M 309.554688 256.640625 L 300.042969 256.640625 C 299.167969 256.640625 298.457031 257.347656 298.457031 258.222656 L 298.457031 267.734375 C 298.457031 268.609375 299.167969 269.320312 300.042969 269.320312 L 309.554688 269.320312 C 310.429688 269.320312 311.140625 268.609375 311.140625 267.734375 L 311.140625 258.222656 C 311.140625 257.347656 310.429688 256.640625 309.554688 256.640625 Z M 307.96875 266.148438 L 301.628906 266.148438 L 301.628906 259.808594 L 307.96875 259.808594 Z M 307.96875 266.148438 " fill-opacity="1" fill-rule="nonzero"/><path fill="#f8fafc" d="M 271.515625 251.882812 L 262.003906 251.882812 C 261.128906 251.882812 260.417969 252.59375 260.417969 253.46875 L 260.417969 262.980469 C 260.417969 263.855469 261.128906 264.5625 262.003906 264.5625 L 271.515625 264.5625 C 272.390625 264.5625 273.097656 263.855469 273.097656 262.980469 L 273.097656 253.46875 C 273.097656 252.59375 272.390625 251.882812 271.515625 251.882812 Z M 269.929688 261.394531 L 263.589844 261.394531 L 263.589844 255.054688 L 269.929688 255.054688 Z M 269.929688 261.394531 " fill-opacity="1" fill-rule="nonzero"/><path fill="#f8fafc" d="M 246.152344 236.035156 L 236.644531 236.035156 C 235.769531 236.035156 235.058594 236.742188 235.058594 237.621094 L 235.058594 247.128906 C 235.058594 248.003906 235.769531 248.714844 236.644531 248.714844 L 246.152344 248.714844 C 247.027344 248.714844 247.738281 248.003906 247.738281 247.128906 L 247.738281 237.621094 C 247.738281 236.742188 247.027344 236.035156 246.152344 236.035156 Z M 244.570312 245.542969 L 238.230469 245.542969 L 238.230469 239.203125 L 244.570312 239.203125 Z M 244.570312 245.542969 " fill-opacity="1" fill-rule="nonzero"/><path fill="#f8fafc" d="M 287.363281 224.9375 L 287.363281 215.429688 C 287.363281 214.554688 286.652344 213.84375 285.777344 213.84375 L 276.269531 213.84375 C 275.394531 213.84375 274.683594 214.554688 274.683594 215.429688 L 274.683594 224.9375 C 274.683594 225.816406 275.394531 226.523438 276.269531 226.523438 L 285.777344 226.523438 C 286.652344 226.523438 287.363281 225.816406 287.363281 224.9375 Z M 284.195312 223.355469 L 277.855469 223.355469 L 277.855469 217.015625 L 284.195312 217.015625 Z M 284.195312 223.355469 " fill-opacity="1" fill-rule="nonzero"/><path fill="#f8fafc" d="M 254.078125 247.128906 C 254.078125 247.339844 254.039062 247.542969 253.957031 247.734375 C 253.878906 247.929688 253.761719 248.101562 253.613281 248.25 C 253.464844 248.398438 253.292969 248.511719 253.101562 248.59375 C 252.90625 248.675781 252.703125 248.714844 252.492188 248.714844 C 252.285156 248.714844 252.082031 248.675781 251.886719 248.59375 C 251.691406 248.511719 251.523438 248.398438 251.371094 248.25 C 251.222656 248.101562 251.109375 247.929688 251.03125 247.734375 C 250.949219 247.542969 250.910156 247.339844 250.910156 247.128906 C 250.910156 246.917969 250.949219 246.71875 251.03125 246.523438 C 251.109375 246.328125 251.222656 246.15625 251.371094 246.007812 C 251.523438 245.859375 251.691406 245.746094 251.886719 245.664062 C 252.082031 245.585938 252.285156 245.542969 252.492188 245.542969 C 252.703125 245.542969 252.90625 245.585938 253.101562 245.664062 C 253.292969 245.746094 253.464844 245.859375 253.613281 246.007812 C 253.761719 246.15625 253.878906 246.328125 253.957031 246.523438 C 254.039062 246.71875 254.078125 246.917969 254.078125 247.128906 Z M 254.078125 247.128906 " fill-opacity="1" fill-rule="nonzero"/></g></g></svg>