<svg xmlns="http://www.w3.org/2000/svg" xmlns:xlink="http://www.w3.org/1999/xlink" width="300" zoomAndPan="magnify" viewBox="0 0 224.87999 74.999997" height="100" preserveAspectRatio="xMidYMid meet" version="1.0"><defs><clipPath id="c581da7222"><path d="M 1 0.03125 L 217 0.03125 L 217 72.742188 L 1 72.742188 Z M 1 0.03125 " clip-rule="nonzero"/></clipPath></defs><g clip-path="url(#c581da7222)"><path fill="#f8fafc" d="M 165.199219 4.128906 C 177.363281 7.679688 189.945312 9.363281 202.578125 9.011719 C 183.808594 29.601562 160.109375 45.609375 134.179688 55.75 C 107.140625 66.335938 77.054688 71.046875 48.140625 67.351562 C 32.46875 65.34375 16.203125 60.300781 5.78125 47.726562 C 4.410156 46.074219 0.203125 46.1875 2.292969 48.710938 C 11.828125 60.207031 25.910156 66.398438 40.261719 69.390625 C 55.058594 72.480469 70.585938 72.734375 85.597656 71.386719 C 116.039062 68.652344 145.710938 58.332031 171.355469 41.71875 C 183.839844 33.632812 195.277344 24.027344 205.40625 13.160156 C 205.09375 29.292969 207.414062 45.414062 212.296875 60.816406 C 212.65625 61.945312 213.84375 62.800781 214.992188 62.996094 C 215.824219 63.140625 217.164062 62.820312 216.800781 61.667969 C 211.339844 44.457031 209.113281 26.425781 210.25 8.40625 C 210.261719 8.191406 210.21875 7.980469 210.128906 7.773438 C 210.539062 6.480469 207.675781 5.003906 206.75 5.078125 C 192.867188 6.195312 178.871094 4.863281 165.496094 0.957031 C 162.324219 0.03125 162.695312 3.394531 165.199219 4.128906 Z M 165.199219 4.128906 " fill-opacity="1" fill-rule="nonzero"/></g></svg>