<svg xmlns="http://www.w3.org/2000/svg" xmlns:xlink="http://www.w3.org/1999/xlink" width="500" zoomAndPan="magnify" viewBox="0 0 375 374.999991" height="500" preserveAspectRatio="xMidYMid meet" version="1.0"><defs><clipPath id="933b86ff8e"><path d="M 49 42.675781 L 229 42.675781 L 229 181 L 49 181 Z M 49 42.675781 " clip-rule="nonzero"/></clipPath><clipPath id="036a6e1ba2"><path d="M 47.515625 176 L 230.800781 176 L 230.800781 182.148438 L 47.515625 182.148438 Z M 47.515625 176 " clip-rule="nonzero"/></clipPath><clipPath id="8093c7fe0d"><path d="M 3 3.523438 L 362 3.523438 L 362 361.152344 L 3 361.152344 Z M 3 3.523438 " clip-rule="nonzero"/></clipPath><clipPath id="160293231d"><rect x="0" width="365" y="0" height="366"/></clipPath></defs><g transform="matrix(1, 0, 0, 1, 10, 5)"><g clip-path="url(#160293231d)"><g clip-path="url(#933b86ff8e)"><path fill="#f8fafc" d="M 50.011719 180.554688 C 50.210938 180.621094 50.480469 180.621094 50.679688 180.621094 C 55.910156 179.414062 61.210938 178.410156 66.574219 177.605469 C 69.191406 177.066406 71.871094 176.597656 74.554688 176.195312 C 74.957031 176.128906 75.425781 176.0625 75.964844 175.925781 C 77.90625 175.457031 79.851562 175.121094 81.796875 174.585938 C 84.078125 173.914062 87.699219 173.179688 92.796875 172.304688 C 93.0625 172.238281 93.265625 172.171875 93.464844 172.039062 C 93.464844 172.039062 93.464844 172.105469 93.464844 172.171875 L 93.464844 172.238281 C 93.464844 172.304688 93.464844 172.304688 93.535156 172.304688 L 120.292969 170.359375 C 135.179688 169.289062 150 169.488281 164.886719 170.898438 C 172.332031 171.433594 178.636719 171.902344 183.800781 172.375 C 185.8125 172.574219 188.089844 173.179688 189.902344 173.511719 C 193.722656 174.183594 197.679688 175.257812 201.300781 175.859375 C 204.65625 176.464844 208.144531 177.203125 211.226562 177.738281 C 213.910156 178.207031 216.59375 178.609375 219.273438 179.011719 C 220.480469 179.28125 221.621094 179.546875 222.828125 179.683594 C 224.371094 179.882812 225.914062 180.421875 227.523438 180.621094 C 228.261719 180.6875 228.261719 180.621094 227.589844 180.351562 L 220.011719 177.269531 C 216.929688 176.128906 213.84375 174.988281 210.757812 173.78125 C 207.539062 172.574219 203.984375 171.367188 200.632812 170.09375 C 197.480469 168.953125 193.320312 167.613281 188.023438 166.203125 C 187.890625 166.203125 187.824219 166.070312 187.824219 166.003906 L 187.890625 161.644531 C 187.824219 148.296875 187.757812 135.019531 187.757812 121.675781 C 187.757812 111.882812 187.621094 102.09375 187.6875 92.300781 C 187.6875 91.292969 187.757812 90.289062 187.824219 89.351562 C 187.824219 89.148438 187.6875 89.015625 187.554688 89.015625 C 187.019531 88.949219 186.683594 88.410156 186.347656 88.210938 C 183.53125 86.199219 180.648438 84.1875 177.898438 81.972656 C 176.625 80.96875 175.214844 80.164062 173.941406 79.222656 C 173.738281 79.089844 173.671875 78.820312 173.738281 78.621094 L 173.941406 78.152344 C 174.007812 77.949219 174.140625 77.882812 174.34375 78.015625 C 178.5 80.898438 182.457031 83.917969 186.414062 87.136719 C 186.683594 87.339844 186.816406 87.269531 186.882812 86.9375 L 187.085938 85.863281 C 187.152344 85.59375 187.019531 85.328125 186.816406 85.191406 L 172.933594 74.460938 C 172.867188 74.394531 172.800781 74.328125 172.800781 74.261719 L 172.734375 74.128906 C 172.667969 74.058594 172.601562 73.992188 172.53125 74.058594 C 170.589844 75 168.644531 75.804688 166.5625 76.339844 L 165.558594 76.675781 L 165.492188 73.457031 C 165.757812 72.71875 165.757812 72.183594 165.425781 71.847656 C 165.289062 71.644531 165.15625 71.511719 164.953125 71.378906 C 154.089844 62.925781 143.628906 53.875 132.898438 45.222656 C 131.894531 44.417969 130.953125 43.546875 130.015625 42.675781 C 129.949219 42.675781 129.949219 42.675781 129.882812 42.742188 C 129.210938 44.082031 128.675781 45.691406 128.136719 46.898438 C 126.261719 50.855469 124.316406 54.8125 122.371094 58.703125 C 122.167969 59.039062 121.96875 59.777344 121.765625 60.914062 C 121.765625 61.050781 121.765625 61.117188 121.832031 61.25 C 122.234375 61.921875 122.371094 62.660156 122.371094 63.398438 C 122.371094 63.664062 122.503906 63.730469 122.707031 63.597656 L 123.042969 63.464844 C 123.308594 63.398438 123.445312 63.195312 123.511719 62.925781 C 123.578125 62.457031 123.644531 62.191406 123.710938 62.054688 C 125.589844 59.105469 127.398438 56.15625 129.144531 53.136719 C 129.480469 52.53125 129.949219 51.929688 130.417969 51.460938 C 130.6875 51.191406 131.019531 51.191406 131.355469 51.394531 C 141.550781 59.441406 151.609375 67.355469 161.535156 75.132812 C 162.941406 76.273438 164.417969 77.210938 165.960938 77.949219 C 166.09375 78.015625 166.09375 78.082031 166.09375 78.21875 L 166.09375 161.039062 C 166.09375 161.105469 166.027344 161.171875 165.960938 161.171875 L 160.597656 160.035156 C 160.527344 160.035156 160.460938 159.964844 160.460938 159.832031 L 160.460938 148.5 C 160.460938 148.433594 160.394531 148.296875 160.261719 148.296875 L 156.304688 147.695312 C 156.035156 147.628906 155.96875 147.761719 156.167969 147.960938 C 156.503906 148.433594 156.707031 149.035156 156.707031 149.773438 C 156.707031 152.589844 156.640625 155.472656 156.570312 158.289062 C 156.570312 158.492188 156.640625 158.757812 156.707031 159.09375 C 156.773438 159.296875 156.707031 159.363281 156.503906 159.296875 L 155.902344 159.230469 C 155.699219 159.230469 155.632812 159.09375 155.632812 158.960938 L 155.5 147.761719 C 155.5 147.628906 155.433594 147.558594 155.363281 147.558594 L 151.609375 146.621094 C 151.476562 146.621094 151.410156 146.621094 151.410156 146.753906 L 151.410156 158.289062 C 151.410156 158.492188 151.339844 158.558594 151.140625 158.492188 L 150.605469 158.289062 C 150.46875 158.222656 150.402344 158.15625 150.402344 158.023438 L 150.402344 146.488281 C 150.402344 146.421875 150.335938 146.351562 150.269531 146.285156 L 146.914062 145.613281 C 146.914062 145.613281 146.914062 145.613281 146.847656 145.613281 C 146.714844 145.613281 146.648438 145.683594 146.648438 145.816406 L 146.578125 157.484375 C 146.578125 157.621094 146.511719 157.6875 146.378906 157.6875 L 146.109375 157.6875 C 145.976562 157.6875 145.910156 157.550781 145.910156 157.484375 L 145.910156 145.613281 C 145.910156 145.546875 145.84375 145.480469 145.773438 145.480469 L 142.691406 144.675781 C 142.625 144.675781 142.554688 144.675781 142.554688 144.742188 L 142.625 157.082031 C 142.625 157.21875 142.488281 157.285156 142.355469 157.285156 L 138.332031 156.679688 C 137.996094 156.613281 137.726562 156.613281 137.390625 156.679688 L 131.691406 157.417969 C 131.691406 157.417969 131.691406 157.417969 131.625 157.417969 C 131.492188 157.417969 131.355469 157.285156 131.355469 157.148438 C 131.558594 145.414062 131.289062 133.8125 131.492188 122.078125 C 131.492188 119.996094 131.558594 117.917969 131.492188 115.773438 C 131.421875 107.253906 131.355469 98.738281 131.421875 90.222656 C 131.421875 86.9375 131.355469 82.710938 131.421875 78.886719 C 131.492188 74.730469 131.492188 70.90625 131.421875 66.414062 C 131.421875 63.867188 131.492188 61.25 131.421875 58.769531 C 131.355469 56.421875 131.421875 54.277344 131.019531 51.929688 C 131.019531 51.929688 131.019531 51.863281 130.953125 51.863281 C 130.886719 51.796875 130.820312 51.863281 130.820312 51.929688 C 130.015625 53.136719 129.277344 54.410156 128.539062 55.75 C 127.9375 56.960938 127.132812 58.03125 126.460938 59.238281 C 126.125 59.84375 124.984375 61.585938 124.851562 62.457031 C 124.71875 63.53125 124.71875 65.207031 124.785156 67.554688 C 124.851562 70.035156 124.917969 71.710938 124.917969 72.652344 C 124.984375 82.175781 125.054688 91.628906 125.121094 101.085938 L 125.253906 117.648438 L 125.1875 129.921875 L 125.121094 143.535156 C 125.1875 146.351562 125.121094 149.238281 124.984375 152.054688 C 124.984375 152.386719 124.785156 152.589844 124.785156 152.925781 C 125.65625 153.191406 126.59375 153.328125 127.535156 153.261719 C 127.667969 153.261719 127.667969 153.328125 127.667969 153.394531 L 127.601562 157.285156 C 127.601562 157.6875 127.398438 157.953125 126.996094 157.953125 L 122.304688 158.558594 C 122.234375 158.558594 122.167969 158.492188 122.167969 158.355469 L 122.304688 94.582031 C 122.304688 94.515625 122.304688 94.445312 122.304688 94.445312 L 122.4375 94.113281 C 122.503906 93.976562 122.4375 93.84375 122.304688 93.777344 L 112.109375 87.941406 C 112.042969 87.875 111.976562 87.875 111.839844 87.941406 C 108.890625 90.558594 106.207031 93.574219 103.59375 96.054688 C 100.777344 98.804688 97.222656 102.359375 93.800781 105.3125 C 93.734375 105.378906 93.667969 105.445312 93.667969 105.578125 L 93.535156 113.222656 C 93.535156 113.625 93.667969 113.695312 93.9375 113.359375 C 95.34375 111.683594 96.886719 110.074219 99.703125 107.792969 C 100.171875 107.390625 100.574219 107.054688 100.84375 106.652344 C 101.378906 106.046875 101.984375 105.78125 102.453125 105.3125 C 104.664062 103.367188 106.878906 101.421875 109.226562 99.34375 C 109.359375 99.207031 109.5625 99.207031 109.628906 99.410156 C 110.230469 100.480469 109.023438 101.421875 108.289062 102.09375 C 104.53125 105.445312 100.777344 108.730469 96.953125 112.015625 C 95.949219 112.890625 94.941406 113.828125 94.003906 114.832031 C 93.0625 115.773438 92.257812 116.308594 91.121094 116.980469 C 90.648438 117.246094 90.515625 117.582031 90.648438 118.121094 L 90.71875 118.320312 C 90.851562 118.789062 91.121094 118.925781 91.523438 118.65625 C 95.277344 116.109375 98.496094 112.6875 102.117188 109.9375 C 102.652344 109.535156 103.125 109 103.527344 108.664062 C 106.007812 107.121094 108.019531 105.445312 110.03125 103.703125 C 110.230469 103.566406 110.367188 103.433594 110.566406 103.367188 C 110.632812 103.367188 110.703125 103.300781 110.703125 103.367188 C 110.835938 103.367188 110.902344 103.5 110.835938 103.632812 C 110.367188 105.378906 110.367188 106.921875 110.367188 108.664062 C 110.300781 112.488281 110.300781 116.242188 110.367188 120.066406 C 110.433594 122.144531 110.230469 124.625 110.300781 126.90625 C 110.367188 128.179688 110.164062 129.585938 110.230469 130.929688 C 110.5 139.445312 110.230469 148.03125 110.164062 156.546875 L 109.964844 161.171875 C 109.964844 161.242188 109.898438 161.308594 109.828125 161.308594 C 109.695312 161.308594 109.5625 161.375 109.425781 161.375 C 109.496094 159.832031 109.496094 156.679688 109.496094 156.546875 C 109.496094 155.875 109.425781 155.136719 109.425781 154.46875 C 109.425781 146.152344 109.359375 137.902344 109.359375 129.585938 C 109.359375 121.808594 109.425781 114.027344 109.496094 106.183594 C 109.496094 106.183594 109.496094 106.117188 109.425781 106.117188 C 109.359375 106.046875 109.292969 106.046875 109.292969 106.117188 C 107.953125 107.390625 106.609375 108.597656 105.136719 109.871094 C 104.398438 110.476562 104.53125 111.28125 104.597656 112.21875 C 104.664062 114.230469 104.464844 117.046875 104.53125 119.527344 C 104.597656 120.46875 104.597656 121.339844 104.597656 122.007812 C 104.53125 133.746094 104.53125 150.710938 104.597656 162.648438 C 104.332031 162.714844 104.0625 162.78125 103.792969 162.851562 C 103.792969 149.972656 103.929688 131.800781 103.859375 118.992188 C 103.859375 116.511719 103.859375 114.027344 103.996094 111.480469 C 103.996094 111.011719 103.792969 110.878906 103.390625 111.144531 C 102.117188 111.949219 100.910156 113.023438 99.703125 114.296875 C 99.570312 114.5 99.503906 114.632812 99.503906 114.832031 C 99.570312 115.035156 99.570312 115.167969 99.570312 115.167969 C 99.503906 125.964844 99.433594 136.828125 99.503906 147.628906 L 99.503906 163.855469 C 99.300781 163.921875 99.167969 163.921875 98.964844 163.992188 L 98.898438 143.132812 L 99.03125 114.96875 C 99.03125 114.96875 99.03125 114.902344 99.03125 114.902344 C 98.964844 114.832031 98.898438 114.832031 98.832031 114.902344 L 92.660156 119.929688 C 92.527344 120.066406 92.460938 120.199219 92.460938 120.398438 L 92.527344 125.496094 L 92.527344 134.75 L 92.59375 165.53125 C 92.59375 164.257812 92.527344 160.703125 92.460938 160.703125 L 92.394531 160.703125 C 92.257812 160.636719 92.191406 164.929688 92.125 165.667969 C 91.992188 163.050781 91.925781 155.539062 91.992188 152.925781 C 92.125 148.566406 91.992188 144.273438 92.058594 139.914062 C 92.058594 138.039062 92.058594 136.160156 92.058594 134.28125 L 92.191406 125.296875 L 92.191406 121.273438 C 92.191406 120.871094 91.992188 120.800781 91.65625 120.871094 L 91.523438 120.9375 C 91.320312 121.003906 91.1875 121.203125 91.1875 121.472656 C 91.1875 134.082031 91.121094 152.054688 91.050781 164.660156 C 91.050781 164.863281 91.050781 165.265625 91.121094 165.933594 C 90.582031 166.070312 89.980469 166.203125 89.441406 166.40625 C 86.960938 167.140625 84.613281 167.679688 82.199219 168.484375 C 74.019531 171.234375 66.039062 174.183594 58.058594 177.402344 L 49.808594 180.6875 C 49.875 180.488281 49.875 180.488281 50.011719 180.554688 Z M 185.476562 95.652344 L 185.074219 96.457031 C 185.007812 96.527344 185.007812 96.660156 185.074219 96.726562 C 185.339844 97.53125 185.207031 98.269531 185.207031 99.007812 C 185.207031 117.316406 185.207031 135.621094 185.207031 153.929688 C 185.207031 156.613281 185.140625 161.242188 185.207031 164.929688 C 185.207031 165.199219 185.074219 165.332031 184.804688 165.265625 L 181.921875 164.527344 C 181.855469 164.527344 181.789062 164.460938 181.789062 164.394531 C 181.71875 151.984375 181.585938 139.578125 181.652344 127.171875 C 181.652344 125.160156 181.585938 122.949219 181.585938 121.070312 C 181.652344 110.273438 181.652344 101.691406 181.519531 95.25 C 181.519531 94.648438 181.386719 93.84375 181.050781 92.769531 C 181.050781 92.636719 180.984375 92.570312 180.847656 92.570312 C 180.445312 92.433594 180.042969 92.503906 179.707031 92.769531 C 179.707031 92.769531 179.707031 92.769531 179.640625 92.835938 C 179.574219 92.972656 179.574219 93.171875 179.707031 93.238281 C 179.910156 93.375 179.976562 93.574219 179.976562 93.910156 C 179.84375 115.773438 179.777344 137.636719 179.84375 159.496094 C 179.84375 160.90625 179.84375 162.378906 179.84375 163.855469 C 179.84375 163.921875 179.777344 163.992188 179.640625 163.992188 L 176.757812 163.320312 C 176.554688 163.253906 176.421875 163.117188 176.421875 162.917969 C 176.421875 154.871094 176.421875 146.890625 176.355469 139.042969 C 176.355469 133.8125 176.355469 127.84375 176.488281 121.136719 C 176.488281 121.003906 176.488281 120.734375 176.488281 120.265625 C 176.488281 110.542969 176.488281 100.816406 176.421875 91.027344 C 176.421875 90.558594 176.421875 90.15625 176.355469 89.683594 C 176.355469 89.617188 176.355469 89.550781 176.421875 89.484375 C 176.554688 89.28125 176.757812 89.28125 176.960938 89.351562 L 185.140625 94.714844 C 185.609375 94.917969 185.675781 95.25 185.476562 95.652344 Z M 173.808594 80.496094 C 173.808594 80.429688 173.808594 80.429688 173.875 80.363281 C 174.007812 80.230469 174.074219 80.230469 174.277344 80.363281 C 175.148438 81.101562 175.886719 81.839844 176.890625 82.441406 C 179.238281 83.851562 181.316406 85.730469 183.53125 87.269531 C 184.605469 88.007812 185.542969 89.082031 186.75 89.820312 C 186.816406 89.886719 186.882812 89.953125 186.882812 90.085938 L 186.816406 93.574219 C 186.816406 93.574219 186.816406 93.640625 186.816406 93.640625 C 186.75 93.777344 186.617188 93.84375 186.480469 93.777344 C 186.078125 93.640625 185.675781 93.375 185.273438 93.171875 C 183.128906 91.765625 180.914062 90.421875 178.769531 89.015625 C 178.234375 88.679688 177.765625 88.210938 177.292969 87.742188 C 177.226562 87.671875 177.09375 87.671875 177.027344 87.742188 L 176.691406 88.074219 C 176.625 88.144531 176.488281 88.210938 176.421875 88.210938 C 175.683594 88.144531 174.945312 88.277344 174.34375 88.613281 C 174.34375 88.613281 174.277344 88.613281 174.277344 88.613281 C 174.140625 88.613281 174.007812 88.546875 174.007812 88.410156 C 173.539062 85.796875 173.738281 83.046875 173.808594 80.496094 Z M 128.675781 98.402344 L 128.675781 65.746094 L 128.742188 60.984375 L 128.808594 60.984375 C 128.875 60.984375 128.875 60.984375 128.875 61.050781 L 128.941406 65.542969 L 129.007812 99.476562 C 129.078125 100.011719 129.078125 100.480469 129.078125 101.019531 C 129.078125 109.066406 129.078125 117.113281 129.078125 125.160156 C 129.078125 125.363281 129.078125 125.496094 129.144531 125.628906 C 129.144531 125.699219 129.210938 125.765625 129.210938 125.898438 C 129.144531 130.726562 129.144531 135.554688 129.144531 140.316406 C 129.144531 143.9375 129.078125 147.492188 128.941406 151.113281 C 128.941406 151.515625 128.875 151.917969 128.742188 152.320312 C 128.675781 152.523438 128.675781 152.523438 128.675781 152.320312 Z M 117.140625 105.109375 C 117.140625 103.164062 117.140625 101.21875 117.207031 99.273438 C 117.207031 98.941406 117.273438 98.605469 117.40625 98.335938 C 117.476562 98.136719 117.542969 98.136719 117.609375 98.335938 C 117.742188 98.871094 117.878906 99.410156 117.878906 100.078125 C 117.878906 107.792969 117.878906 115.503906 117.808594 123.214844 C 117.808594 128.851562 117.808594 134.484375 117.878906 140.183594 C 117.878906 143.269531 117.808594 146.957031 117.808594 150.308594 C 117.878906 153.191406 117.878906 156.144531 117.878906 159.027344 C 117.878906 159.027344 117.878906 159.09375 117.878906 159.09375 C 117.808594 159.160156 117.742188 159.230469 117.609375 159.160156 L 117.542969 159.09375 C 117.339844 159.027344 117.207031 158.828125 117.207031 158.558594 C 117.074219 140.71875 117.074219 122.8125 117.140625 105.109375 Z M 110.164062 168.015625 C 113.449219 167.410156 116.804688 166.808594 120.15625 166.269531 C 124.984375 165.398438 130.015625 164.996094 134.910156 164.460938 C 136.386719 164.324219 137.863281 164.058594 139.335938 163.789062 C 139.875 163.722656 141.214844 164.058594 141.820312 164.125 C 145.640625 164.660156 149.328125 165.0625 153.21875 165.734375 C 158.917969 166.738281 164.753906 167.542969 170.320312 168.75 C 172.601562 169.222656 174.945312 169.554688 177.226562 170.292969 C 178.835938 170.761719 180.378906 170.964844 181.921875 171.566406 C 182.121094 171.636719 182.121094 171.703125 181.921875 171.636719 C 176.558594 171.097656 171.125 170.496094 165.691406 169.957031 C 160.394531 169.421875 154.15625 169.019531 146.980469 168.75 C 137.996094 168.484375 129.007812 168.617188 119.957031 169.289062 C 112.042969 169.824219 106.207031 170.359375 102.519531 170.832031 C 99.570312 171.234375 96.550781 171.566406 93.601562 171.902344 C 99.03125 170.292969 104.53125 169.019531 110.164062 168.015625 Z M 96.015625 117.984375 C 96.015625 117.785156 96.082031 117.582031 96.214844 117.449219 L 96.417969 117.179688 C 96.417969 117.179688 96.484375 117.113281 96.484375 117.113281 C 96.550781 117.113281 96.617188 117.179688 96.617188 117.246094 L 96.550781 142.394531 L 96.550781 164.324219 C 96.351562 164.394531 96.214844 164.394531 96.015625 164.460938 L 96.082031 142.597656 Z M 96.015625 117.984375 " fill-opacity="1" fill-rule="nonzero"/></g><path fill="#f8fafc" d="M 132.832031 55.75 L 132.699219 55.75 C 132.632812 55.75 132.632812 55.75 132.632812 55.820312 C 132.5625 58.300781 132.429688 60.847656 132.496094 63.328125 C 132.5625 76.472656 132.632812 89.550781 132.765625 102.695312 C 132.765625 104.507812 132.699219 107.121094 132.832031 109.402344 C 132.898438 110.140625 132.632812 110.808594 132.699219 111.546875 C 132.765625 112.753906 132.832031 113.761719 132.832031 114.5 C 132.832031 117.984375 132.765625 123.617188 132.699219 131.398438 C 132.699219 133.679688 132.898438 136.359375 132.832031 138.910156 C 132.765625 144.003906 132.765625 147.558594 132.699219 151.984375 C 132.699219 152.121094 132.765625 152.1875 132.832031 152.253906 L 132.964844 152.320312 C 133.101562 152.386719 133.167969 152.320312 133.167969 152.1875 C 133.101562 146.753906 133.234375 141.390625 133.167969 136.023438 C 133.101562 128.179688 133.367188 120.265625 133.300781 112.417969 C 133.234375 104.371094 133.234375 96.324219 133.234375 88.277344 C 133.234375 82.777344 133.234375 77.480469 133.101562 71.710938 C 133.035156 69.03125 133.035156 66.28125 133.035156 63.597656 C 133.035156 61.050781 133.035156 58.570312 133.035156 56.019531 C 133.035156 55.886719 132.964844 55.820312 132.832031 55.75 Z M 132.832031 55.75 " fill-opacity="1" fill-rule="nonzero"/><path fill="#f8fafc" d="M 124.71875 100.550781 C 124.71875 89.683594 124.652344 78.820312 124.582031 67.890625 C 124.582031 66.414062 124.382812 65.074219 124.113281 63.664062 C 124.113281 63.597656 124.046875 63.53125 124.046875 63.664062 C 123.914062 64 123.847656 64.269531 123.847656 64.605469 C 123.777344 76.003906 123.847656 87.339844 124.113281 98.738281 C 124.382812 111.078125 123.980469 130.460938 124.046875 152.992188 C 124.046875 153.125 124.113281 153.191406 124.25 153.191406 C 124.582031 153.261719 124.851562 153.191406 124.917969 152.992188 L 124.984375 142.261719 C 124.984375 138.441406 124.917969 134.617188 124.984375 130.726562 C 124.984375 130.125 124.984375 129.453125 124.984375 128.851562 C 124.785156 124.757812 124.917969 120.535156 125.054688 116.441406 C 125.121094 114.96875 124.917969 113.359375 124.917969 112.015625 C 124.785156 108.195312 124.785156 104.371094 124.71875 100.550781 Z M 124.71875 100.550781 " fill-opacity="1" fill-rule="nonzero"/><path fill="#f8fafc" d="M 145.976562 71.242188 C 145.976562 71.175781 145.976562 71.175781 145.910156 71.109375 C 144.96875 69.96875 143.628906 69.164062 142.554688 68.160156 C 142.554688 68.160156 142.488281 68.160156 142.488281 68.160156 C 142.421875 68.160156 142.421875 68.226562 142.421875 68.226562 L 142.421875 73.457031 C 142.421875 73.523438 142.421875 73.589844 142.488281 73.589844 L 145.773438 75.667969 C 145.773438 75.667969 145.84375 75.667969 145.84375 75.601562 L 145.84375 71.445312 C 145.84375 71.378906 145.84375 71.308594 145.910156 71.308594 C 145.976562 71.308594 145.976562 71.242188 145.976562 71.242188 Z M 145.976562 71.242188 " fill-opacity="1" fill-rule="nonzero"/><path fill="#f8fafc" d="M 147.050781 76.875 L 150.203125 78.957031 C 150.203125 78.957031 150.203125 78.957031 150.269531 78.957031 C 150.335938 78.957031 150.335938 78.886719 150.402344 78.886719 L 150.605469 75.132812 C 150.605469 74.863281 150.46875 74.597656 150.269531 74.394531 L 146.578125 71.378906 C 146.511719 71.378906 146.511719 71.308594 146.445312 71.378906 C 146.378906 71.378906 146.378906 71.511719 146.378906 71.578125 C 146.378906 71.644531 146.445312 71.644531 146.445312 71.644531 C 146.445312 71.644531 146.445312 71.644531 146.445312 71.710938 C 146.445312 71.78125 146.445312 71.847656 146.445312 71.914062 C 146.445312 71.980469 146.445312 72.113281 146.445312 72.183594 C 146.914062 73.457031 146.847656 75.132812 146.847656 76.542969 C 146.847656 76.675781 146.914062 76.808594 147.050781 76.875 Z M 147.050781 76.875 " fill-opacity="1" fill-rule="nonzero"/><path fill="#f8fafc" d="M 142.421875 74.863281 C 142.421875 74.933594 142.488281 75 142.554688 75.132812 C 143.292969 76.070312 144.097656 76.875 144.96875 77.546875 C 147.25 79.289062 149.464844 81.101562 151.878906 82.710938 C 154.023438 84.1875 157.175781 85.863281 159.722656 87.742188 C 159.722656 87.742188 159.722656 87.742188 159.792969 87.742188 L 159.859375 87.671875 C 159.859375 87.605469 159.859375 87.605469 159.859375 87.605469 C 159.253906 87.070312 157.847656 86.132812 155.632812 84.65625 C 151.945312 82.175781 147.652344 79.023438 142.757812 75.066406 C 142.691406 75 142.691406 75 142.625 75 C 142.625 75 142.625 75 142.554688 75 C 142.488281 74.863281 142.488281 74.863281 142.421875 74.863281 C 142.421875 74.796875 142.421875 74.796875 142.421875 74.863281 Z M 142.421875 74.863281 " fill-opacity="1" fill-rule="nonzero"/><path fill="#f8fafc" d="M 154.558594 81.972656 C 154.695312 81.972656 154.761719 81.90625 154.761719 81.773438 C 154.828125 80.898438 154.828125 80.027344 154.828125 79.222656 C 154.828125 78.285156 154.894531 77.816406 154.089844 77.277344 C 153.21875 76.675781 152.28125 76.070312 151.339844 75.46875 C 151.339844 75.46875 151.339844 75.46875 151.273438 75.46875 C 151.207031 75.46875 151.207031 75.535156 151.207031 75.535156 L 151.140625 79.359375 C 151.140625 79.425781 151.140625 79.492188 151.207031 79.558594 C 152.011719 80.164062 153.621094 81.703125 154.558594 81.972656 Z M 154.558594 81.972656 " fill-opacity="1" fill-rule="nonzero"/><path fill="#f8fafc" d="M 146.042969 80.765625 C 146.042969 80.566406 145.910156 80.363281 145.773438 80.230469 L 142.890625 78.082031 C 142.691406 77.949219 142.554688 78.015625 142.554688 78.21875 C 142.355469 79.625 142.355469 81.035156 142.488281 82.441406 C 142.488281 82.578125 142.554688 82.644531 142.625 82.710938 L 145.84375 84.925781 C 145.84375 84.925781 145.910156 84.925781 145.910156 84.925781 C 145.976562 84.925781 146.042969 84.855469 146.042969 84.789062 Z M 146.042969 80.765625 " fill-opacity="1" fill-rule="nonzero"/><path fill="#f8fafc" d="M 158.785156 84.992188 C 158.917969 84.992188 158.988281 84.925781 158.988281 84.789062 L 159.1875 81.101562 C 159.1875 81.035156 159.1875 80.96875 159.121094 80.898438 L 155.96875 78.621094 C 155.96875 78.621094 155.902344 78.554688 155.835938 78.554688 C 155.699219 78.554688 155.632812 78.621094 155.632812 78.753906 L 155.5 82.375 C 155.5 82.441406 155.5 82.507812 155.566406 82.507812 L 158.585938 84.789062 C 158.71875 84.992188 158.71875 84.992188 158.785156 84.992188 Z M 158.785156 84.992188 " fill-opacity="1" fill-rule="nonzero"/><path fill="#f8fafc" d="M 147.117188 85.660156 L 150.066406 87.539062 C 150.269531 87.671875 150.402344 87.605469 150.402344 87.339844 L 150.535156 83.648438 C 150.535156 83.515625 150.46875 83.449219 150.402344 83.382812 L 147.316406 81.300781 C 147.316406 81.300781 147.25 81.300781 147.25 81.300781 C 147.183594 81.300781 147.050781 81.371094 147.050781 81.503906 C 146.980469 82.777344 146.714844 84.1875 146.914062 85.394531 C 146.980469 85.460938 147.050781 85.527344 147.117188 85.660156 Z M 147.117188 85.660156 " fill-opacity="1" fill-rule="nonzero"/><path fill="#f8fafc" d="M 160.664062 82.039062 C 160.664062 81.90625 160.597656 81.90625 160.460938 81.90625 C 160.328125 81.972656 160.261719 82.105469 160.261719 82.308594 C 160.195312 84.1875 160.261719 85.929688 160.394531 87.671875 C 160.460938 88.746094 160.597656 88.746094 160.730469 87.671875 C 160.863281 85.996094 161.066406 83.851562 160.664062 82.039062 Z M 160.664062 82.039062 " fill-opacity="1" fill-rule="nonzero"/><path fill="#f8fafc" d="M 151.410156 88.34375 L 154.359375 90.488281 C 154.628906 90.691406 154.761719 90.625 154.761719 90.289062 L 154.761719 86.667969 C 154.761719 86.464844 154.628906 86.265625 154.425781 86.132812 L 151.339844 84.1875 C 151.339844 84.1875 151.273438 84.1875 151.207031 84.1875 C 151.140625 84.1875 151.007812 84.253906 151.074219 84.386719 L 151.273438 86.734375 Z M 151.410156 88.34375 " fill-opacity="1" fill-rule="nonzero"/><path fill="#f8fafc" d="M 158.382812 93.105469 C 158.652344 93.308594 158.785156 93.238281 158.851562 92.90625 L 158.988281 89.214844 C 158.988281 89.082031 158.917969 88.878906 158.785156 88.8125 L 156.304688 87.203125 C 156.238281 87.136719 156.101562 87.136719 156.035156 87.203125 C 155.902344 87.339844 155.765625 87.472656 155.765625 87.742188 C 155.632812 88.746094 155.566406 89.753906 155.632812 90.757812 C 155.632812 90.890625 155.699219 90.960938 155.765625 91.027344 Z M 158.382812 93.105469 " fill-opacity="1" fill-rule="nonzero"/><path fill="#f8fafc" d="M 142.890625 87.671875 C 142.890625 87.671875 142.824219 87.671875 142.824219 87.671875 C 142.757812 87.671875 142.691406 87.742188 142.691406 87.808594 L 142.691406 92.636719 C 142.691406 92.703125 142.691406 92.769531 142.757812 92.769531 L 145.773438 94.582031 C 145.773438 94.582031 145.84375 94.582031 145.84375 94.582031 C 145.910156 94.582031 145.976562 94.515625 145.976562 94.445312 L 146.175781 90.019531 C 146.175781 89.953125 146.175781 89.953125 146.109375 89.886719 Z M 142.890625 87.671875 " fill-opacity="1" fill-rule="nonzero"/><path fill="#f8fafc" d="M 160.125 89.820312 L 160.328125 94.917969 C 160.328125 94.917969 160.328125 94.984375 160.328125 94.984375 L 160.527344 95.320312 C 160.527344 95.386719 160.597656 95.386719 160.664062 95.386719 C 160.730469 95.386719 160.796875 95.320312 160.796875 95.25 L 160.796875 90.488281 C 160.796875 90.488281 160.796875 90.421875 160.796875 90.421875 L 160.460938 89.753906 C 160.460938 89.683594 160.394531 89.683594 160.328125 89.683594 C 160.195312 89.683594 160.125 89.753906 160.125 89.820312 Z M 160.125 89.820312 " fill-opacity="1" fill-rule="nonzero"/><path fill="#f8fafc" d="M 150.535156 92.90625 C 149.394531 91.898438 148.1875 91.09375 146.914062 90.488281 C 146.648438 90.488281 146.578125 90.691406 146.714844 90.960938 C 146.980469 91.628906 146.914062 92.703125 146.847656 93.375 L 146.914062 94.714844 C 146.914062 94.847656 146.980469 94.917969 147.050781 94.984375 C 147.71875 95.652344 148.457031 96.125 149.328125 96.390625 C 149.730469 96.527344 149.933594 96.792969 150.335938 96.996094 C 150.46875 97.0625 150.535156 97.0625 150.46875 96.859375 C 150.46875 96.59375 150.402344 96.324219 150.269531 96.125 C 150.203125 95.988281 150.203125 95.921875 150.269531 95.789062 C 150.535156 95.050781 150.738281 94.246094 150.804688 93.441406 C 150.804688 93.238281 150.738281 93.039062 150.535156 92.90625 Z M 150.535156 92.90625 " fill-opacity="1" fill-rule="nonzero"/><path fill="#f8fafc" d="M 151.140625 97.261719 C 151.140625 97.398438 151.207031 97.53125 151.339844 97.597656 L 154.828125 99.476562 C 154.828125 99.476562 154.894531 99.476562 154.894531 99.476562 C 154.960938 99.476562 155.03125 99.410156 155.03125 99.34375 C 155.03125 98.269531 154.960938 97.195312 154.960938 96.125 C 154.960938 94.917969 152.480469 93.910156 151.542969 93.441406 C 151.476562 93.441406 151.476562 93.441406 151.410156 93.441406 C 151.273438 93.441406 151.140625 93.574219 151.140625 93.710938 Z M 151.140625 97.261719 " fill-opacity="1" fill-rule="nonzero"/><path fill="#f8fafc" d="M 142.488281 97.464844 L 145.84375 99.675781 C 145.84375 99.675781 145.910156 99.675781 145.910156 99.675781 C 145.976562 99.675781 146.042969 99.609375 146.042969 99.542969 L 145.976562 96.257812 C 145.976562 96.191406 145.976562 96.125 145.910156 96.125 L 142.691406 94.113281 C 142.691406 94.113281 142.625 94.113281 142.625 94.113281 C 142.554688 94.113281 142.488281 94.179688 142.421875 94.246094 L 142.355469 97.332031 C 142.421875 97.332031 142.421875 97.398438 142.488281 97.464844 Z M 142.488281 97.464844 " fill-opacity="1" fill-rule="nonzero"/><path fill="#f8fafc" d="M 159.320312 99.476562 C 159.121094 99.140625 158.988281 98.804688 158.988281 98.402344 C 158.988281 98.136719 158.785156 97.867188 158.585938 97.800781 L 155.96875 96.390625 C 155.699219 96.257812 155.566406 96.324219 155.566406 96.660156 L 155.632812 99.746094 C 155.632812 99.878906 155.699219 99.945312 155.765625 100.011719 C 156.839844 100.75 157.980469 101.355469 159.1875 101.757812 C 159.1875 101.757812 159.253906 101.757812 159.253906 101.757812 C 159.320312 101.757812 159.390625 101.621094 159.320312 101.554688 C 159.121094 100.953125 159.121094 100.347656 159.320312 99.746094 C 159.390625 99.675781 159.390625 99.542969 159.320312 99.476562 Z M 159.320312 99.476562 " fill-opacity="1" fill-rule="nonzero"/><path fill="#f8fafc" d="M 146.914062 100.078125 L 150.46875 101.957031 C 150.46875 101.957031 150.46875 101.957031 150.535156 101.957031 C 150.605469 101.957031 150.671875 101.890625 150.671875 101.824219 L 150.671875 98.539062 C 150.671875 98.46875 150.671875 98.46875 150.605469 98.46875 L 146.980469 96.324219 C 146.980469 96.324219 146.914062 96.324219 146.914062 96.324219 C 146.847656 96.324219 146.78125 96.390625 146.847656 96.457031 L 146.914062 99.945312 C 146.847656 100.011719 146.847656 100.078125 146.914062 100.078125 Z M 146.914062 100.078125 " fill-opacity="1" fill-rule="nonzero"/><path fill="#f8fafc" d="M 154.894531 101.085938 L 151.542969 99.207031 C 151.542969 99.207031 151.476562 99.207031 151.476562 99.207031 C 151.339844 99.207031 151.273438 99.273438 151.273438 99.410156 L 151.140625 102.226562 C 151.140625 102.292969 151.207031 102.425781 151.273438 102.425781 L 154.894531 104.171875 C 154.894531 104.171875 154.960938 104.171875 155.03125 104.171875 C 155.164062 104.171875 155.230469 104.035156 155.230469 103.96875 L 155.097656 101.289062 C 155.03125 101.21875 154.960938 101.152344 154.894531 101.085938 Z M 154.894531 101.085938 " fill-opacity="1" fill-rule="nonzero"/><path fill="#f8fafc" d="M 159.992188 99.675781 C 159.925781 102.425781 159.925781 104.707031 159.925781 106.519531 C 159.925781 106.921875 160.125 107.253906 160.460938 107.457031 C 160.527344 107.523438 160.597656 107.523438 160.597656 107.390625 C 160.730469 104.105469 160.796875 101.691406 160.460938 99.609375 C 160.460938 99.542969 160.394531 99.476562 160.261719 99.476562 L 160.195312 99.476562 C 160.125 99.476562 160.058594 99.542969 159.992188 99.675781 Z M 159.992188 99.675781 " fill-opacity="1" fill-rule="nonzero"/><path fill="#f8fafc" d="M 145.976562 107.457031 C 146.109375 107.457031 146.175781 107.390625 146.175781 107.253906 L 146.175781 103.96875 C 146.175781 103.769531 146.042969 103.632812 145.910156 103.566406 C 144.703125 103.097656 143.695312 102.425781 142.824219 101.554688 C 142.757812 101.488281 142.691406 101.488281 142.691406 101.621094 C 142.554688 102.898438 142.554688 104.105469 142.554688 105.378906 C 142.554688 106.652344 144.96875 107.121094 145.976562 107.457031 Z M 145.976562 107.457031 " fill-opacity="1" fill-rule="nonzero"/><path fill="#f8fafc" d="M 158.515625 102.964844 L 156.101562 101.554688 C 156.035156 101.554688 156.035156 101.488281 155.96875 101.488281 C 155.765625 101.488281 155.632812 101.621094 155.632812 101.824219 L 155.632812 104.238281 C 155.632812 104.371094 155.699219 104.4375 155.765625 104.507812 C 156.371094 104.910156 156.503906 104.839844 156.839844 105.511719 C 156.90625 105.578125 156.972656 105.644531 157.042969 105.644531 L 158.71875 106.316406 C 158.785156 106.382812 158.851562 106.316406 158.851562 106.25 L 158.851562 103.703125 C 158.917969 103.300781 158.785156 103.097656 158.515625 102.964844 Z M 158.515625 102.964844 " fill-opacity="1" fill-rule="nonzero"/><path fill="#f8fafc" d="M 146.78125 107.925781 L 150.46875 109.535156 C 150.46875 109.535156 150.535156 109.535156 150.535156 109.535156 C 150.605469 109.535156 150.671875 109.46875 150.671875 109.402344 L 150.671875 105.914062 C 150.671875 105.847656 150.671875 105.78125 150.605469 105.78125 L 146.980469 104.035156 C 146.980469 104.035156 146.914062 104.035156 146.914062 104.035156 C 146.847656 104.035156 146.78125 104.105469 146.78125 104.171875 L 146.714844 107.792969 C 146.714844 107.792969 146.78125 107.859375 146.78125 107.925781 Z M 146.78125 107.925781 " fill-opacity="1" fill-rule="nonzero"/><path fill="#f8fafc" d="M 154.960938 107.792969 L 151.542969 106.25 C 151.542969 106.25 151.476562 106.25 151.476562 106.25 C 151.410156 106.25 151.339844 106.316406 151.339844 106.382812 L 151.410156 109.9375 C 151.410156 110.003906 151.476562 110.074219 151.476562 110.074219 L 154.894531 111.613281 C 154.894531 111.613281 154.960938 111.613281 154.960938 111.613281 C 155.03125 111.613281 155.097656 111.546875 155.097656 111.480469 L 155.03125 107.925781 C 155.03125 107.859375 155.03125 107.859375 154.960938 107.792969 Z M 154.960938 107.792969 " fill-opacity="1" fill-rule="nonzero"/><path fill="#f8fafc" d="M 142.691406 110.609375 C 143.429688 111.210938 144.902344 111.683594 145.84375 112.015625 C 145.910156 112.015625 145.910156 112.015625 145.910156 111.949219 L 145.910156 109 C 145.910156 108.933594 145.84375 108.863281 145.84375 108.863281 L 142.824219 107.253906 C 142.824219 107.253906 142.757812 107.253906 142.757812 107.253906 C 142.691406 107.253906 142.625 107.324219 142.625 107.390625 C 142.757812 108.394531 142.554688 109.265625 142.554688 110.273438 C 142.554688 110.476562 142.554688 110.542969 142.691406 110.609375 Z M 142.691406 110.609375 " fill-opacity="1" fill-rule="nonzero"/><path fill="#f8fafc" d="M 159.054688 109.9375 L 155.835938 108.328125 C 155.835938 108.328125 155.835938 108.328125 155.765625 108.328125 C 155.699219 108.328125 155.699219 108.394531 155.699219 108.394531 L 155.699219 111.949219 C 155.699219 112.015625 155.699219 112.015625 155.765625 112.015625 L 159.054688 113.558594 C 159.054688 113.558594 159.054688 113.558594 159.121094 113.558594 C 159.1875 113.558594 159.1875 113.492188 159.1875 113.492188 L 159.1875 110.003906 C 159.121094 110.003906 159.054688 109.9375 159.054688 109.9375 Z M 159.054688 109.9375 " fill-opacity="1" fill-rule="nonzero"/><path fill="#f8fafc" d="M 146.578125 109.199219 L 146.578125 112.351562 C 146.578125 112.417969 146.578125 112.417969 146.648438 112.488281 L 150.46875 114.164062 C 150.46875 114.164062 150.46875 114.164062 150.535156 114.164062 C 150.605469 114.164062 150.671875 114.097656 150.671875 114.027344 L 150.671875 111.210938 C 150.671875 111.144531 150.671875 111.144531 150.605469 111.078125 L 146.78125 109.066406 C 146.78125 109.066406 146.714844 109.066406 146.714844 109.066406 C 146.648438 109.132812 146.578125 109.132812 146.578125 109.199219 Z M 146.578125 109.199219 " fill-opacity="1" fill-rule="nonzero"/><path fill="#f8fafc" d="M 160.394531 119.125 C 160.527344 119.125 160.664062 117.046875 160.664062 114.5 L 160.664062 110.742188 C 160.664062 110.675781 160.597656 110.609375 160.527344 110.609375 L 160.125 110.609375 C 160.058594 110.609375 159.992188 110.675781 159.992188 110.742188 L 159.992188 114.5 C 159.992188 117.046875 160.058594 119.058594 160.195312 119.125 Z M 160.394531 119.125 " fill-opacity="1" fill-rule="nonzero"/><path fill="#f8fafc" d="M 151.140625 114.363281 C 152.347656 115.167969 153.621094 115.773438 154.960938 116.308594 C 155.097656 116.375 155.097656 116.308594 155.097656 116.175781 C 155.03125 115.4375 155.03125 114.632812 154.960938 113.894531 C 154.894531 112.488281 152.75 111.75 151.675781 111.546875 C 151.339844 111.480469 151.207031 111.613281 151.207031 111.882812 L 151.140625 113.828125 C 151.140625 113.894531 151.140625 113.960938 151.074219 114.027344 C 151.074219 114.027344 151.007812 114.097656 151.007812 114.097656 C 151.074219 114.296875 151.074219 114.363281 151.140625 114.363281 Z M 151.140625 114.363281 " fill-opacity="1" fill-rule="nonzero"/><path fill="#f8fafc" d="M 155.699219 116.578125 L 158.652344 117.917969 C 158.652344 117.917969 158.71875 117.917969 158.71875 117.917969 C 158.851562 117.917969 158.917969 117.851562 158.917969 117.71875 L 158.988281 115.101562 C 158.988281 115.035156 158.917969 114.96875 158.851562 114.902344 L 155.902344 113.425781 C 155.902344 113.425781 155.835938 113.425781 155.835938 113.425781 C 155.699219 113.425781 155.632812 113.492188 155.632812 113.625 L 155.566406 116.441406 C 155.566406 116.441406 155.632812 116.511719 155.699219 116.578125 Z M 155.699219 116.578125 " fill-opacity="1" fill-rule="nonzero"/><path fill="#f8fafc" d="M 142.691406 118.589844 L 145.507812 119.796875 C 145.574219 119.796875 145.640625 119.796875 145.640625 119.796875 C 145.84375 119.796875 146.042969 119.59375 146.042969 119.394531 L 146.042969 116.511719 C 146.042969 116.242188 145.910156 116.039062 145.640625 115.90625 L 142.554688 114.429688 C 142.554688 114.429688 142.554688 114.429688 142.488281 114.429688 C 142.421875 114.429688 142.355469 114.5 142.355469 114.5 L 142.355469 118.050781 C 142.421875 118.320312 142.554688 118.523438 142.691406 118.589844 Z M 142.691406 118.589844 " fill-opacity="1" fill-rule="nonzero"/><path fill="#f8fafc" d="M 150.738281 120.9375 L 150.605469 118.386719 C 150.605469 118.1875 150.46875 117.984375 150.269531 117.917969 L 146.980469 116.441406 C 146.847656 116.375 146.78125 116.441406 146.78125 116.578125 C 146.78125 117.582031 146.847656 118.523438 146.914062 119.527344 C 146.914062 119.796875 147.117188 119.996094 147.453125 120.199219 C 148.457031 120.734375 149.464844 121.070312 150.402344 121.273438 C 150.605469 121.339844 150.738281 121.203125 150.738281 120.9375 Z M 150.738281 120.9375 " fill-opacity="1" fill-rule="nonzero"/><path fill="#f8fafc" d="M 155.03125 119.863281 C 155.03125 119.796875 154.960938 119.730469 154.894531 119.664062 L 151.542969 118.386719 C 151.542969 118.386719 151.476562 118.386719 151.476562 118.386719 C 151.339844 118.386719 151.273438 118.523438 151.273438 118.589844 L 151.339844 121.472656 C 151.339844 121.539062 151.410156 121.605469 151.476562 121.675781 L 154.894531 123.082031 C 154.894531 123.082031 154.960938 123.082031 154.960938 123.082031 C 155.097656 123.082031 155.164062 122.949219 155.164062 122.882812 Z M 155.03125 119.863281 " fill-opacity="1" fill-rule="nonzero"/><path fill="#f8fafc" d="M 142.421875 122.679688 C 142.421875 122.746094 142.488281 122.8125 142.554688 122.8125 L 146.175781 124.089844 C 146.246094 124.089844 146.3125 124.089844 146.378906 124.019531 C 146.445312 123.953125 146.445312 123.820312 146.378906 123.753906 C 146.3125 123.6875 146.3125 123.6875 146.246094 123.617188 C 146.175781 123.550781 146.175781 123.417969 146.175781 123.417969 L 146.109375 121.742188 C 146.109375 121.472656 145.976562 121.273438 145.707031 121.136719 L 142.554688 119.730469 C 142.554688 119.730469 142.488281 119.730469 142.488281 119.796875 Z M 142.421875 122.679688 " fill-opacity="1" fill-rule="nonzero"/><path fill="#f8fafc" d="M 158.785156 121.203125 L 155.765625 119.996094 C 155.765625 119.996094 155.699219 119.996094 155.699219 119.996094 C 155.632812 119.996094 155.566406 120.066406 155.566406 120.132812 L 155.632812 122.882812 C 155.632812 123.015625 155.699219 123.148438 155.765625 123.214844 C 156.707031 123.953125 157.777344 124.421875 158.988281 124.691406 C 159.054688 124.691406 159.121094 124.625 159.121094 124.558594 L 159.054688 121.605469 C 159.121094 121.40625 158.988281 121.273438 158.785156 121.203125 Z M 158.785156 121.203125 " fill-opacity="1" fill-rule="nonzero"/><path fill="#f8fafc" d="M 146.914062 121.472656 C 146.78125 121.472656 146.648438 121.605469 146.648438 121.742188 L 146.78125 123.953125 C 146.78125 124.222656 146.914062 124.421875 147.183594 124.558594 C 148.1875 125.09375 149.328125 125.429688 150.46875 125.699219 L 150.605469 122.882812 C 149.597656 122.277344 148.390625 121.808594 147.050781 121.472656 C 146.980469 121.472656 146.914062 121.472656 146.914062 121.472656 Z M 146.914062 121.472656 " fill-opacity="1" fill-rule="nonzero"/><path fill="#f8fafc" d="M 160.195312 129.722656 C 160.195312 129.789062 160.261719 129.789062 160.328125 129.789062 L 160.394531 129.789062 C 160.460938 129.789062 160.527344 129.722656 160.527344 129.585938 C 160.597656 127.238281 160.664062 125.027344 160.730469 122.8125 C 160.730469 122.410156 160.664062 122.078125 160.394531 121.875 C 160.394531 121.875 160.328125 121.808594 160.261719 121.808594 C 160.195312 121.808594 160.125 121.875 160.125 122.007812 Z M 160.195312 129.722656 " fill-opacity="1" fill-rule="nonzero"/><path fill="#f8fafc" d="M 151.273438 124.757812 L 151.339844 123.820312 L 151.339844 126.101562 C 152.347656 126.769531 153.488281 127.238281 154.628906 127.574219 C 154.761719 127.574219 154.828125 127.640625 154.828125 127.574219 C 154.960938 127.507812 155.03125 127.375 155.03125 127.171875 L 154.894531 124.894531 C 154.894531 124.625 154.761719 124.421875 154.492188 124.355469 L 151.476562 123.082031 C 151.476562 123.082031 151.410156 123.082031 151.410156 123.082031 C 151.273438 123.082031 151.207031 123.214844 151.207031 123.351562 L 151.207031 124.289062 Z M 151.273438 124.757812 " fill-opacity="1" fill-rule="nonzero"/><path fill="#f8fafc" d="M 155.632812 127.441406 C 155.632812 127.574219 155.699219 127.710938 155.835938 127.710938 L 158.515625 128.984375 C 158.585938 128.984375 158.585938 128.984375 158.652344 128.984375 C 158.851562 128.984375 158.988281 128.851562 158.988281 128.648438 L 158.988281 126.234375 C 158.988281 126.101562 158.917969 125.964844 158.785156 125.964844 L 156.035156 124.757812 C 155.96875 124.757812 155.96875 124.757812 155.902344 124.757812 C 155.699219 124.757812 155.566406 124.894531 155.566406 125.09375 Z M 155.632812 127.441406 " fill-opacity="1" fill-rule="nonzero"/><path fill="#f8fafc" d="M 142.691406 130.390625 C 143.761719 130.996094 144.902344 131.128906 145.910156 131.464844 C 146.175781 130.59375 146.246094 129.585938 146.109375 128.378906 C 146.109375 128.3125 146.109375 128.179688 146.042969 128.113281 C 145.976562 128.046875 145.910156 127.976562 145.773438 127.910156 C 144.769531 127.507812 143.695312 127.105469 142.691406 126.636719 C 142.625 126.570312 142.554688 126.636719 142.554688 126.703125 L 142.554688 130.125 C 142.554688 130.257812 142.554688 130.324219 142.691406 130.390625 Z M 142.691406 130.390625 " fill-opacity="1" fill-rule="nonzero"/><path fill="#f8fafc" d="M 150.671875 129.519531 L 147.050781 128.3125 C 146.914062 128.246094 146.847656 128.3125 146.78125 128.449219 C 146.714844 128.582031 146.714844 128.78125 146.78125 128.984375 L 147.050781 131.734375 C 148.121094 132.136719 149.195312 132.539062 150.203125 132.804688 C 150.46875 132.875 150.605469 132.804688 150.671875 132.738281 Z M 150.671875 129.519531 " fill-opacity="1" fill-rule="nonzero"/><path fill="#f8fafc" d="M 155.230469 133.878906 L 155.230469 131.53125 C 155.230469 131.128906 155.03125 130.863281 154.628906 130.726562 L 151.339844 129.722656 L 151.339844 132.738281 C 151.339844 132.875 151.410156 132.941406 151.542969 133.007812 C 152.546875 133.542969 153.6875 133.945312 154.828125 134.214844 C 154.828125 134.214844 154.894531 134.214844 154.894531 134.214844 C 155.03125 134.28125 155.230469 134.082031 155.230469 133.878906 Z M 155.230469 133.878906 " fill-opacity="1" fill-rule="nonzero"/><path fill="#f8fafc" d="M 159.320312 135.355469 L 159.320312 132.472656 C 159.320312 132.402344 159.253906 132.269531 159.1875 132.269531 L 155.902344 131.265625 C 155.902344 131.265625 155.835938 131.265625 155.835938 131.265625 C 155.699219 131.265625 155.632812 131.332031 155.632812 131.464844 L 155.699219 134.414062 C 155.699219 134.484375 155.765625 134.617188 155.835938 134.617188 L 158.988281 135.554688 C 158.988281 135.554688 159.054688 135.554688 159.054688 135.554688 C 159.1875 135.554688 159.320312 135.488281 159.320312 135.355469 Z M 159.320312 135.355469 " fill-opacity="1" fill-rule="nonzero"/><path fill="#f8fafc" d="M 142.625 135.289062 L 145.910156 136.09375 C 145.976562 136.09375 146.042969 136.023438 146.042969 135.957031 L 145.976562 132.941406 C 145.976562 132.875 145.976562 132.875 145.910156 132.875 L 142.691406 132 C 142.625 132 142.554688 132.070312 142.554688 132.136719 L 142.554688 135.21875 C 142.554688 135.21875 142.554688 135.289062 142.625 135.289062 Z M 142.625 135.289062 " fill-opacity="1" fill-rule="nonzero"/><path fill="#f8fafc" d="M 160.527344 141.726562 C 160.664062 141.726562 160.796875 137.703125 160.796875 132.804688 L 160.796875 132.738281 C 160.796875 132.671875 160.730469 132.671875 160.730469 132.671875 L 160.328125 132.671875 C 160.261719 132.671875 160.261719 132.738281 160.261719 132.738281 L 160.261719 132.804688 C 160.261719 132.804688 160.261719 132.804688 160.261719 132.875 C 160.261719 137.835938 160.328125 141.792969 160.460938 141.792969 L 160.527344 141.792969 Z M 160.527344 141.726562 " fill-opacity="1" fill-rule="nonzero"/><path fill="#f8fafc" d="M 150.671875 137.300781 L 150.535156 134.75 C 150.535156 134.683594 150.46875 134.617188 150.402344 134.550781 L 147.117188 133.140625 C 147.117188 133.140625 147.050781 133.140625 147.050781 133.140625 C 146.914062 133.140625 146.847656 133.207031 146.847656 133.34375 L 146.78125 136.292969 C 146.78125 136.359375 146.847656 136.496094 146.914062 136.496094 L 150.402344 137.5 C 150.402344 137.5 150.46875 137.5 150.46875 137.5 C 150.605469 137.5 150.671875 137.433594 150.671875 137.300781 Z M 150.671875 137.300781 " fill-opacity="1" fill-rule="nonzero"/><path fill="#f8fafc" d="M 154.894531 135.757812 L 151.609375 134.683594 C 151.609375 134.683594 151.542969 134.683594 151.542969 134.683594 C 151.410156 134.683594 151.339844 134.816406 151.339844 134.886719 L 151.476562 137.636719 C 151.476562 137.703125 151.542969 137.835938 151.609375 137.835938 L 154.828125 138.773438 C 154.828125 138.773438 154.894531 138.773438 154.894531 138.773438 C 155.03125 138.773438 155.097656 138.640625 155.097656 138.574219 L 155.097656 135.957031 C 155.03125 135.890625 154.960938 135.824219 154.894531 135.757812 Z M 154.894531 135.757812 " fill-opacity="1" fill-rule="nonzero"/><path fill="#f8fafc" d="M 159.121094 140.050781 L 159.054688 137.433594 C 159.054688 137.367188 158.988281 137.234375 158.917969 137.234375 L 155.902344 136.023438 C 155.902344 136.023438 155.835938 136.023438 155.835938 136.023438 C 155.699219 136.023438 155.632812 136.160156 155.632812 136.226562 L 155.699219 138.84375 C 155.699219 138.910156 155.765625 139.042969 155.835938 139.042969 L 158.851562 140.316406 C 158.851562 140.316406 158.917969 140.316406 158.917969 140.316406 C 158.988281 140.316406 159.121094 140.183594 159.121094 140.050781 Z M 159.121094 140.050781 " fill-opacity="1" fill-rule="nonzero"/><path fill="#f8fafc" d="M 142.691406 141.324219 L 145.507812 141.925781 C 145.574219 141.925781 145.574219 141.925781 145.640625 141.925781 C 145.976562 141.925781 146.246094 141.660156 146.246094 141.324219 L 146.246094 139.378906 C 146.246094 139.246094 146.175781 139.175781 146.042969 139.109375 L 142.957031 138.238281 C 142.890625 138.238281 142.824219 138.304688 142.757812 138.371094 L 142.554688 141.121094 C 142.554688 141.257812 142.625 141.324219 142.691406 141.324219 Z M 142.691406 141.324219 " fill-opacity="1" fill-rule="nonzero"/><path fill="#f8fafc" d="M 147.050781 142.328125 L 150.066406 143.066406 C 150.335938 143.132812 150.46875 143 150.46875 142.730469 L 150.46875 140.585938 C 150.46875 140.316406 150.335938 140.117188 150.066406 140.050781 L 147.050781 139.378906 C 146.714844 139.3125 146.578125 139.445312 146.578125 139.714844 L 146.511719 141.660156 C 146.648438 141.992188 146.78125 142.261719 147.050781 142.328125 Z M 147.050781 142.328125 " fill-opacity="1" fill-rule="nonzero"/><path fill="#f8fafc" d="M 151.542969 143.335938 L 155.164062 144.074219 C 155.164062 144.074219 155.164062 144.074219 155.230469 144.074219 C 155.363281 144.074219 155.433594 143.9375 155.433594 143.871094 L 155.363281 141.660156 C 155.363281 141.589844 155.296875 141.457031 155.230469 141.457031 L 151.476562 140.382812 C 151.476562 140.382812 151.410156 140.382812 151.410156 140.382812 C 151.273438 140.382812 151.207031 140.519531 151.207031 140.585938 L 151.339844 143.132812 C 151.410156 143.199219 151.476562 143.335938 151.542969 143.335938 Z M 151.542969 143.335938 " fill-opacity="1" fill-rule="nonzero"/><path fill="#f8fafc" d="M 156.167969 141.660156 C 156.167969 141.660156 156.101562 141.660156 156.167969 141.660156 C 155.96875 141.660156 155.835938 141.792969 155.835938 141.925781 L 155.902344 144.140625 C 155.902344 144.273438 155.96875 144.339844 156.101562 144.40625 L 158.449219 145.144531 C 158.449219 145.144531 158.515625 145.144531 158.515625 145.144531 C 158.652344 145.144531 158.785156 145.011719 158.785156 144.878906 L 158.917969 142.328125 C 158.917969 142.195312 158.851562 142.0625 158.71875 142.0625 Z M 156.167969 141.660156 " fill-opacity="1" fill-rule="nonzero"/><path fill="#f8fafc" d="M 192.785156 176.464844 C 187.957031 175.792969 182.859375 175.324219 177.964844 174.652344 C 175.417969 174.316406 171.929688 174.117188 170.386719 173.984375 C 168.507812 173.78125 166.5625 173.648438 164.6875 173.511719 C 153.621094 172.84375 142.554688 172.640625 131.492188 172.84375 C 128.875 172.910156 124.046875 172.910156 120.359375 173.109375 C 108.621094 173.714844 95.210938 174.855469 82.667969 176.398438 C 82.265625 176.464844 82.265625 176.53125 82.667969 176.597656 C 82.667969 176.597656 82.871094 176.597656 83.070312 176.597656 C 85.21875 176.398438 87.632812 176.398438 89.644531 176.195312 C 98.832031 175.390625 107.953125 174.789062 117.140625 174.386719 C 123.175781 174.050781 128.003906 174.117188 133.4375 173.847656 C 134.039062 173.847656 134.976562 173.847656 136.253906 173.847656 C 137.527344 173.847656 138.867188 173.78125 140.007812 173.78125 C 142.152344 173.847656 144.300781 173.847656 146.445312 173.847656 C 148.523438 173.847656 151.8125 174.050781 154.425781 174.050781 C 157.042969 174.050781 159.65625 174.316406 162.273438 174.453125 C 163.949219 174.519531 165.894531 174.652344 168.039062 174.789062 C 170.589844 174.988281 173.269531 174.921875 175.820312 175.191406 L 195.9375 176.867188 C 195.9375 176.867188 196.003906 176.867188 196.003906 176.867188 C 196.003906 176.867188 196.070312 176.800781 196.003906 176.730469 C 196.003906 176.730469 195.9375 176.664062 195.9375 176.664062 C 194.933594 176.730469 193.859375 176.664062 192.785156 176.464844 Z M 192.785156 176.464844 " fill-opacity="1" fill-rule="nonzero"/><g clip-path="url(#036a6e1ba2)"><path fill="#f8fafc" d="M 230.476562 182.433594 L 216.390625 181.089844 C 211.226562 180.554688 205.996094 180.019531 200.765625 179.546875 C 199.691406 179.480469 198.21875 179.480469 196.945312 179.28125 C 195.265625 179.078125 194.328125 178.945312 194.125 178.878906 C 188.089844 178.339844 182.054688 177.804688 175.953125 177.335938 C 166.832031 176.867188 157.445312 176.597656 142.421875 176.464844 C 136.183594 176.464844 128.003906 176.464844 117.945312 176.597656 C 109.5625 176.867188 101.246094 177.132812 92.929688 177.871094 C 91.992188 177.9375 90.851562 177.9375 90.113281 178.007812 C 83.40625 178.742188 76.699219 179.347656 69.996094 179.949219 C 66.976562 180.21875 63.960938 180.554688 60.941406 180.957031 C 56.648438 181.492188 52.359375 181.628906 48.066406 182.03125 C 47.929688 182.03125 47.796875 182.03125 47.796875 182.097656 C 47.597656 182.164062 47.597656 182.230469 47.863281 182.230469 L 51.820312 182.230469 C 60.808594 181.761719 69.660156 181.425781 78.578125 181.089844 C 90.316406 180.6875 101.847656 180.019531 116.269531 179.75 C 134.976562 179.480469 153.621094 179.546875 172.332031 180.085938 C 182.925781 180.351562 193.589844 180.957031 204.1875 181.359375 C 210.824219 181.628906 217.398438 181.964844 224.035156 182.164062 L 230.542969 182.367188 C 230.542969 182.5 230.542969 182.5 230.476562 182.433594 C 230.542969 182.433594 230.542969 182.433594 230.476562 182.433594 C 230.542969 182.433594 230.542969 182.433594 230.476562 182.433594 Z M 230.476562 182.433594 " fill-opacity="1" fill-rule="nonzero"/></g><path fill="#f8fafc" d="M 210.039062 58.3125 C 189.816406 38.09375 162.894531 26.953125 134.226562 26.953125 C 105.554688 26.953125 78.632812 38.09375 58.40625 58.3125 C 16.605469 100.117188 16.605469 168.144531 58.40625 209.953125 C 78.625 230.175781 105.546875 241.3125 134.21875 241.3125 C 162.890625 241.3125 189.816406 230.179688 210.039062 209.953125 C 230.261719 189.730469 241.398438 162.804688 241.398438 134.136719 C 241.398438 105.464844 230.257812 78.535156 210.039062 58.3125 Z M 204.042969 203.957031 C 185.417969 222.578125 160.625 232.832031 134.21875 232.832031 C 107.8125 232.832031 83.023438 222.582031 64.402344 203.957031 C 25.90625 165.457031 25.90625 102.8125 64.402344 64.3125 C 83.027344 45.691406 107.820312 35.4375 134.226562 35.4375 C 160.628906 35.4375 185.417969 45.691406 204.042969 64.3125 C 242.542969 102.8125 242.542969 165.453125 204.042969 203.957031 Z M 204.042969 203.957031 " fill-opacity="1" fill-rule="nonzero"/><g clip-path="url(#8093c7fe0d)"><path fill="#f8fafc" d="M 353.417969 314.25 L 282.042969 242.875 L 267.277344 228.105469 C 265.6875 226.515625 262.871094 226.515625 261.28125 228.105469 L 259.03125 230.355469 C 258.824219 229.863281 258.53125 229.394531 258.128906 228.992188 L 239.957031 210.8125 C 256.0625 188.675781 264.777344 162.09375 264.777344 134.132812 C 264.777344 99.207031 251.214844 66.402344 226.578125 41.773438 C 201.945312 17.144531 169.148438 3.582031 134.230469 3.582031 C 99.304688 3.582031 66.5 17.148438 41.867188 41.78125 C -9.058594 92.703125 -9.058594 175.566406 41.867188 226.5 C 66.503906 251.128906 99.304688 264.691406 134.226562 264.691406 C 162.1875 264.691406 188.769531 255.976562 210.902344 239.867188 L 229.082031 258.054688 C 229.484375 258.457031 229.945312 258.75 230.4375 258.957031 L 228.210938 261.1875 C 226.554688 262.847656 226.554688 265.527344 228.210938 267.183594 L 243.546875 282.523438 L 314.339844 353.332031 C 319.558594 358.550781 326.5 361.425781 333.878906 361.425781 C 341.257812 361.425781 348.203125 358.550781 353.417969 353.332031 C 364.191406 342.546875 364.191406 325.015625 353.417969 314.25 Z M 47.855469 220.492188 C 0.238281 172.871094 0.238281 95.390625 47.855469 47.769531 C 70.886719 24.742188 101.558594 12.054688 134.21875 12.054688 C 166.878906 12.054688 197.550781 24.738281 220.574219 47.761719 C 243.609375 70.792969 256.289062 101.460938 256.289062 134.125 C 256.289062 166.785156 243.609375 197.457031 220.574219 220.480469 C 197.542969 243.511719 166.878906 256.191406 134.214844 256.191406 C 101.5625 256.199219 70.886719 243.519531 47.855469 220.492188 Z M 235.074219 252.046875 L 217.648438 234.613281 C 220.726562 232.050781 223.710938 229.355469 226.574219 226.488281 C 229.4375 223.621094 232.144531 220.632812 234.707031 217.558594 L 252.128906 234.992188 C 252.53125 235.394531 252.992188 235.691406 253.488281 235.894531 L 235.972656 253.410156 C 235.769531 252.917969 235.476562 252.449219 235.074219 252.046875 Z M 264.277344 237.101562 L 273.136719 245.960938 L 246.453125 273.433594 L 237.203125 264.175781 Z M 347.421875 347.328125 C 343.800781 350.945312 338.996094 352.941406 333.878906 352.941406 C 328.765625 352.941406 323.957031 350.945312 320.335938 347.328125 L 252.453125 279.429688 L 279.140625 251.953125 L 347.425781 320.246094 C 354.886719 327.710938 354.886719 339.855469 347.421875 347.328125 Z M 347.421875 347.328125 " fill-opacity="1" fill-rule="nonzero"/></g></g></g></svg>