<svg xmlns="http://www.w3.org/2000/svg" xmlns:xlink="http://www.w3.org/1999/xlink" width="500" zoomAndPan="magnify" viewBox="0 0 375 374.999991" height="500" preserveAspectRatio="xMidYMid meet" version="1.0"><defs><clipPath id="ce28fef66a"><path d="M 4.453125 0 L 370.453125 0 L 370.453125 375 L 4.453125 375 Z M 4.453125 0 " clip-rule="nonzero"/></clipPath></defs><g clip-path="url(#ce28fef66a)"><path fill="#f8fafc" d="M 234.671875 302.261719 C 226.339844 321.699219 213.011719 338.5 196.308594 351.039062 L 205.824219 352.976562 C 209.097656 353.640625 211.210938 356.835938 210.546875 360.105469 C 209.882812 363.378906 206.6875 365.496094 203.414062 364.828125 L 179.539062 359.972656 C 176.390625 359.332031 174.292969 356.347656 174.761719 353.167969 L 177.90625 331.703125 C 178.390625 328.398438 181.464844 326.109375 184.769531 326.59375 C 188.070312 327.078125 190.359375 330.152344 189.875 333.457031 L 188.675781 341.644531 C 215.089844 321.988281 232.21875 290.53125 232.21875 255.105469 C 232.21875 195.613281 183.914062 147.3125 124.421875 147.3125 C 64.929688 147.3125 16.625 195.613281 16.625 255.105469 C 16.625 314.601562 64.929688 362.902344 124.421875 362.902344 C 127.761719 362.902344 130.46875 365.613281 130.46875 368.953125 C 130.46875 372.289062 127.761719 375 124.421875 375 C 58.25 375 4.53125 321.277344 4.53125 255.105469 C 4.53125 217.371094 22 183.683594 49.289062 161.699219 L 49.289062 79.78125 C 49.289062 76.441406 51.996094 73.734375 55.335938 73.734375 L 118.375 73.734375 L 118.375 11.761719 C 118.375 5.59375 123.875 0 131.300781 0 L 324.765625 0 C 332.195312 0 337.695312 5.59375 337.695312 11.761719 L 337.695312 74.148438 L 364.496094 74.148438 C 367.839844 74.148438 370.546875 76.859375 370.546875 80.199219 L 370.546875 296.214844 C 370.546875 299.554688 367.839844 302.261719 364.496094 302.261719 Z M 61.386719 153.128906 C 79.703125 141.773438 101.304688 135.214844 124.421875 135.214844 C 190.59375 135.214844 244.3125 188.9375 244.3125 255.105469 C 244.3125 267.300781 242.488281 279.074219 239.097656 290.164062 L 294.996094 290.164062 C 294.996094 290.164062 294.996094 132.789062 294.996094 132.789062 L 172.972656 132.789062 C 171.261719 132.789062 169.628906 132.0625 168.484375 130.792969 L 127.90625 85.828125 C 127.90625 85.828125 61.386719 85.828125 61.386719 85.828125 Z M 130.46875 73.734375 L 130.59375 73.734375 C 132.304688 73.734375 133.9375 74.457031 135.085938 75.730469 L 175.664062 120.691406 L 301.042969 120.691406 C 304.386719 120.691406 307.09375 123.398438 307.09375 126.738281 L 307.09375 231.804688 C 314.363281 231.804688 325.597656 231.804688 325.597656 231.804688 L 325.597656 12.308594 C 325.386719 12.222656 325.03125 12.097656 324.765625 12.097656 L 131.300781 12.097656 C 131.039062 12.097656 130.683594 12.222656 130.46875 12.308594 Z M 307.09375 243.902344 L 307.09375 290.164062 L 358.449219 290.164062 C 358.449219 290.164062 358.449219 86.246094 358.449219 86.246094 L 337.695312 86.246094 L 337.695312 237.851562 C 337.695312 241.191406 334.988281 243.902344 331.648438 243.902344 Z M 183.890625 73.664062 C 180.550781 73.664062 177.84375 70.953125 177.84375 67.613281 C 177.84375 64.277344 180.550781 61.566406 183.890625 61.566406 L 297.5625 61.566406 C 300.902344 61.566406 303.609375 64.277344 303.609375 67.613281 C 303.609375 70.953125 300.902344 73.664062 297.5625 73.664062 Z M 183.890625 104.023438 C 180.550781 104.023438 177.84375 101.3125 177.84375 97.972656 C 177.84375 94.636719 180.550781 91.925781 183.890625 91.925781 L 297.5625 91.925781 C 300.902344 91.925781 303.609375 94.636719 303.609375 97.972656 C 303.609375 101.3125 300.902344 104.023438 297.5625 104.023438 Z M 183.890625 43.304688 C 180.550781 43.304688 177.84375 40.59375 177.84375 37.253906 C 177.84375 33.917969 180.550781 31.207031 183.890625 31.207031 L 297.5625 31.207031 C 300.902344 31.207031 303.609375 33.917969 303.609375 37.253906 C 303.609375 40.59375 300.902344 43.304688 297.5625 43.304688 Z M 124.433594 174.34375 C 169.015625 174.34375 205.183594 210.511719 205.183594 255.121094 C 205.183594 299.703125 169.019531 335.871094 124.433594 335.871094 C 79.824219 335.871094 43.660156 299.703125 43.660156 255.121094 C 43.660156 210.511719 79.824219 174.34375 124.433594 174.34375 Z M 124.433594 186.441406 C 86.503906 186.441406 55.753906 217.191406 55.753906 255.121094 C 55.753906 293.027344 86.507812 323.773438 124.433594 323.773438 C 162.339844 323.773438 193.089844 293.023438 193.089844 255.121094 C 193.089844 217.191406 162.339844 186.441406 124.433594 186.441406 Z M 166.058594 288.1875 C 168.417969 290.550781 168.417969 294.382812 166.058594 296.742188 C 163.695312 299.101562 159.863281 299.101562 157.503906 296.742188 L 153.457031 292.695312 C 151.09375 290.335938 151.09375 286.503906 153.457031 284.140625 C 155.816406 281.78125 159.648438 281.78125 162.011719 284.140625 Z M 157.503906 213.472656 C 159.863281 211.113281 163.695312 211.113281 166.058594 213.472656 C 168.417969 215.832031 168.417969 219.667969 166.058594 222.027344 L 162.011719 226.074219 C 159.648438 228.433594 155.816406 228.433594 153.457031 226.074219 C 151.09375 223.710938 151.09375 219.878906 153.457031 217.519531 Z M 82.785156 222.027344 C 80.425781 219.667969 80.425781 215.832031 82.785156 213.472656 C 85.148438 211.113281 88.980469 211.113281 91.339844 213.472656 L 95.386719 217.519531 C 97.746094 219.878906 97.746094 223.710938 95.386719 226.074219 C 93.027344 228.433594 89.195312 228.433594 86.832031 226.074219 Z M 177.25 249.070312 C 180.589844 249.070312 183.296875 251.78125 183.296875 255.121094 C 183.296875 258.457031 180.589844 261.167969 177.25 261.167969 L 171.539062 261.167969 C 168.199219 261.167969 165.488281 258.457031 165.488281 255.121094 C 165.488281 251.78125 168.199219 249.070312 171.539062 249.070312 Z M 118.386719 230.003906 C 118.386719 226.667969 121.09375 223.957031 124.433594 223.957031 C 127.769531 223.957031 130.480469 226.667969 130.480469 230.003906 L 130.480469 251.628906 L 144.199219 259.546875 C 147.089844 261.214844 148.082031 264.917969 146.414062 267.808594 C 144.746094 270.699219 141.042969 271.691406 138.152344 270.023438 L 121.410156 260.355469 C 119.539062 259.277344 118.386719 257.28125 118.386719 255.121094 Z M 118.386719 202.277344 C 118.386719 198.941406 121.09375 196.230469 124.433594 196.230469 C 127.769531 196.230469 130.480469 198.941406 130.480469 202.277344 L 130.480469 208.015625 C 130.480469 211.351562 127.769531 214.0625 124.433594 214.0625 C 121.09375 214.0625 118.386719 211.351562 118.386719 208.015625 Z M 71.59375 261.167969 C 68.253906 261.167969 65.542969 258.457031 65.542969 255.121094 C 65.542969 251.78125 68.253906 249.070312 71.59375 249.070312 L 77.328125 249.070312 C 80.667969 249.070312 83.375 251.78125 83.375 255.121094 C 83.375 258.457031 80.667969 261.167969 77.328125 261.167969 Z M 91.339844 296.742188 C 88.980469 299.101562 85.148438 299.101562 82.785156 296.742188 C 80.425781 294.382812 80.425781 290.550781 82.785156 288.1875 L 86.832031 284.140625 C 89.195312 281.78125 93.027344 281.78125 95.386719 284.140625 C 97.746094 286.503906 97.746094 290.335938 95.386719 292.695312 Z M 130.480469 307.9375 C 130.480469 311.273438 127.769531 313.984375 124.433594 313.984375 C 121.09375 313.984375 118.386719 311.273438 118.386719 307.9375 L 118.386719 302.222656 C 118.386719 298.886719 121.09375 296.175781 124.433594 296.175781 C 127.769531 296.175781 130.480469 298.886719 130.480469 302.222656 Z M 130.480469 307.9375 " fill-opacity="1" fill-rule="evenodd"/></g></svg>