<svg xmlns="http://www.w3.org/2000/svg" xmlns:xlink="http://www.w3.org/1999/xlink" width="500" zoomAndPan="magnify" viewBox="0 0 375 374.999991" height="500" preserveAspectRatio="xMidYMid meet" version="1.0"><defs><clipPath id="1daa813d4f"><path d="M 10 0 L 364.703125 0 L 364.703125 375 L 10 375 Z M 10 0 " clip-rule="nonzero"/></clipPath></defs><path fill="#f8fafc" d="M 152.96875 17.816406 C 145.855469 17.816406 140.066406 23.605469 140.066406 30.71875 C 140.066406 37.832031 145.855469 43.617188 152.96875 43.617188 C 160.082031 43.617188 165.867188 37.832031 165.867188 30.71875 C 165.867188 23.605469 160.082031 17.816406 152.96875 17.816406 Z M 152.96875 34.652344 C 150.796875 34.652344 149.03125 32.886719 149.03125 30.714844 C 149.03125 28.546875 150.796875 26.78125 152.96875 26.78125 C 155.140625 26.78125 156.90625 28.546875 156.90625 30.714844 C 156.90625 32.886719 155.140625 34.652344 152.96875 34.652344 Z M 152.96875 34.652344 " fill-opacity="1" fill-rule="nonzero"/><path fill="#f8fafc" d="M 287.453125 140.707031 C 280.769531 139.300781 273.9375 140.582031 268.214844 144.3125 C 262.496094 148.042969 258.570312 153.78125 257.164062 160.464844 C 255.757812 167.144531 257.039062 173.980469 260.769531 179.699219 C 264.5 185.417969 270.238281 189.34375 276.921875 190.75 C 278.691406 191.125 280.472656 191.308594 282.238281 191.308594 C 287.144531 191.308594 291.953125 189.890625 296.15625 187.144531 C 301.878906 183.414062 305.804688 177.679688 307.210938 170.996094 C 308.617188 164.3125 307.335938 157.480469 303.605469 151.757812 C 299.871094 146.039062 294.136719 142.113281 287.453125 140.707031 Z M 298.4375 169.148438 C 296.550781 178.109375 287.726562 183.867188 278.765625 181.980469 C 269.804688 180.09375 264.046875 171.269531 265.933594 162.308594 C 267.578125 154.496094 274.496094 149.121094 282.183594 149.121094 C 283.3125 149.121094 284.457031 149.234375 285.605469 149.476562 C 294.566406 151.363281 300.324219 160.1875 298.4375 169.148438 Z M 298.4375 169.148438 " fill-opacity="1" fill-rule="nonzero"/><path fill="#f8fafc" d="M 63.339844 108.792969 L 242.597656 108.792969 L 242.597656 117.757812 L 63.339844 117.757812 Z M 63.339844 108.792969 " fill-opacity="1" fill-rule="nonzero"/><path fill="#f8fafc" d="M 63.339844 212.535156 L 242.597656 212.535156 L 242.597656 221.5 L 63.339844 221.5 Z M 63.339844 212.535156 " fill-opacity="1" fill-rule="nonzero"/><g clip-path="url(#1daa813d4f)"><path fill="#f8fafc" d="M 361.855469 75.707031 C 359.835938 70.933594 356.945312 66.644531 353.265625 62.964844 C 349.585938 59.285156 345.300781 56.398438 340.527344 54.378906 C 335.582031 52.289062 330.332031 51.226562 324.925781 51.226562 C 319.515625 51.226562 314.265625 52.289062 309.320312 54.378906 C 304.546875 56.398438 300.261719 59.285156 296.582031 62.964844 C 292.902344 66.644531 290.011719 70.933594 287.996094 75.707031 C 287.492188 76.890625 287.050781 78.09375 286.667969 79.316406 L 286.667969 77.125 C 286.667969 70.207031 283.976562 63.703125 279.085938 58.8125 C 274.191406 53.921875 267.6875 51.226562 260.769531 51.226562 L 222.570312 51.226562 L 222.570312 33.199219 C 222.570312 30.726562 220.5625 28.71875 218.085938 28.71875 L 183.03125 28.71875 C 182.695312 21.199219 179.605469 14.175781 174.246094 8.816406 C 168.5625 3.136719 161.007812 0.00390625 152.96875 0.00390625 C 144.929688 0.00390625 137.371094 3.136719 131.6875 8.816406 C 126.332031 14.175781 123.242188 21.199219 122.90625 28.71875 L 87.847656 28.71875 C 85.375 28.71875 83.367188 30.726562 83.367188 33.199219 L 83.367188 51.226562 L 45.167969 51.226562 C 38.25 51.226562 31.746094 53.917969 26.851562 58.808594 C 21.960938 63.703125 19.269531 70.207031 19.269531 77.125 L 19.269531 319.308594 C 19.269531 319.730469 19.328125 320.140625 19.4375 320.53125 C 13.261719 329.703125 10.003906 340.386719 10.003906 351.507812 L 10.003906 358.65625 C 10.003906 361.128906 12.011719 363.136719 14.488281 363.136719 L 87.175781 363.136719 L 87.175781 370.523438 C 87.175781 373 89.183594 375.007812 91.65625 375.007812 L 214.277344 375.007812 C 216.753906 375.007812 218.761719 373 218.761719 370.523438 L 218.761719 363.136719 L 290.515625 363.136719 C 292.988281 363.136719 294.996094 361.128906 294.996094 358.65625 L 294.996094 351.507812 C 294.996094 340.988281 292.078125 330.855469 286.53125 322.023438 C 286.621094 321.675781 286.667969 321.308594 286.667969 320.933594 L 286.667969 207.632812 L 289.277344 211.140625 C 290.144531 212.304688 291.488281 212.945312 292.875 212.945312 C 293.429688 212.945312 293.992188 212.84375 294.53125 212.628906 L 305.457031 208.28125 C 307.339844 207.527344 308.488281 205.605469 308.25 203.589844 L 307.261719 195.261719 L 311.015625 191.609375 L 319.3125 192.824219 C 321.320312 193.121094 323.277344 192.027344 324.078125 190.164062 L 328.726562 179.363281 C 329.53125 177.5 328.980469 175.328125 327.386719 174.070312 L 320.796875 168.882812 L 320.871094 163.644531 L 327.597656 158.636719 C 329.226562 157.425781 329.835938 155.269531 329.085938 153.382812 L 324.738281 142.460938 C 323.984375 140.574219 322.0625 139.425781 320.046875 139.667969 L 311.71875 140.65625 L 308.066406 136.902344 L 309.28125 128.601562 C 309.300781 128.480469 309.3125 128.359375 309.320312 128.238281 C 314.265625 130.332031 319.511719 131.390625 324.921875 131.390625 C 330.332031 131.390625 335.582031 130.332031 340.527344 128.238281 C 345.296875 126.222656 349.585938 123.332031 353.265625 119.652344 C 356.945312 115.972656 359.832031 111.6875 361.851562 106.914062 C 363.945312 101.96875 365.003906 96.71875 365.003906 91.3125 C 365.003906 85.898438 363.945312 80.648438 361.855469 75.707031 Z M 287.992188 106.910156 C 289.96875 111.582031 292.78125 115.789062 296.351562 119.417969 L 295.820312 119.1875 C 293.957031 118.382812 291.785156 118.933594 290.527344 120.527344 L 286.667969 125.425781 L 286.667969 103.300781 C 287.050781 104.519531 287.492188 105.726562 287.992188 106.910156 Z M 92.332031 37.683594 L 127.542969 37.683594 C 128.828125 37.683594 130.046875 37.132812 130.898438 36.175781 C 131.75 35.214844 132.148438 33.9375 131.992188 32.664062 C 131.890625 31.808594 131.839844 30.945312 131.839844 30.097656 C 131.839844 18.445312 141.316406 8.96875 152.96875 8.96875 C 164.617188 8.96875 174.097656 18.445312 174.097656 30.097656 C 174.097656 30.945312 174.042969 31.808594 173.941406 32.664062 C 173.789062 33.9375 174.1875 35.214844 175.039062 36.175781 C 175.886719 37.132812 177.109375 37.683594 178.390625 37.683594 L 213.605469 37.683594 L 213.605469 73.730469 L 92.332031 73.730469 Z M 45.167969 60.191406 L 83.367188 60.191406 L 83.367188 78.214844 C 83.367188 80.6875 85.375 82.695312 87.847656 82.695312 L 218.085938 82.695312 C 220.5625 82.695312 222.570312 80.6875 222.570312 78.214844 L 222.570312 60.191406 L 260.769531 60.191406 C 270.105469 60.191406 277.703125 67.785156 277.703125 77.125 L 277.703125 123.824219 L 275.09375 120.316406 C 273.878906 118.6875 271.726562 118.078125 269.839844 118.828125 L 258.914062 123.179688 C 257.03125 123.929688 255.882812 125.855469 256.125 127.871094 L 257.109375 136.199219 L 253.355469 139.847656 L 245.058594 138.632812 C 243.050781 138.335938 241.09375 139.429688 240.292969 141.292969 L 239.191406 143.851562 L 63.339844 143.851562 L 63.339844 152.816406 L 235.402344 152.816406 C 234.996094 154.496094 235.59375 156.289062 236.984375 157.386719 L 243.570312 162.578125 L 243.5 167.8125 L 236.773438 172.820312 C 235.144531 174.035156 234.535156 176.1875 235.285156 178.074219 L 235.617188 178.910156 L 63.339844 178.910156 L 63.339844 187.875 L 239.1875 187.875 L 239.632812 189 C 240.382812 190.882812 242.308594 192.03125 244.324219 191.789062 L 252.652344 190.804688 L 256.304688 194.558594 L 255.085938 202.855469 C 254.792969 204.863281 255.882812 206.820312 257.75 207.621094 L 268.550781 212.269531 C 270.414062 213.074219 272.585938 212.523438 273.839844 210.929688 L 277.703125 206.03125 L 277.703125 311.234375 C 276.414062 310.011719 275.070312 308.847656 273.667969 307.75 C 270.53125 305.292969 267.152344 303.191406 263.585938 301.46875 C 267.703125 296.15625 269.933594 289.667969 269.933594 282.839844 C 269.933594 274.695312 266.761719 267.039062 261.003906 261.28125 C 255.246094 255.519531 247.589844 252.351562 239.445312 252.351562 C 231.300781 252.351562 223.648438 255.519531 217.886719 261.28125 C 212.128906 267.039062 208.957031 274.695312 208.957031 282.839844 C 208.957031 289.667969 211.1875 296.152344 215.304688 301.464844 C 208.867188 304.578125 203.082031 308.910156 198.265625 314.230469 C 196.746094 312.785156 195.15625 311.410156 193.5 310.113281 C 189.484375 306.96875 185.136719 304.316406 180.535156 302.1875 C 185.804688 295.8125 188.671875 287.875 188.671875 279.496094 C 188.671875 269.957031 184.957031 260.992188 178.214844 254.246094 C 171.46875 247.503906 162.503906 243.789062 152.964844 243.789062 C 143.425781 243.789062 134.460938 247.503906 127.71875 254.246094 C 120.972656 260.992188 117.261719 269.957031 117.261719 279.496094 C 117.261719 287.875 120.128906 295.8125 125.398438 302.1875 C 120.785156 304.320312 116.433594 306.976562 112.410156 310.128906 C 110.578125 311.566406 108.828125 313.097656 107.160156 314.710938 C 102.261719 309.175781 96.308594 304.667969 89.6875 301.464844 C 93.804688 296.152344 96.039062 289.667969 96.039062 282.835938 C 96.039062 274.695312 92.867188 267.039062 87.105469 261.277344 C 81.347656 255.519531 73.691406 252.347656 65.550781 252.347656 C 57.40625 252.347656 49.75 255.519531 43.992188 261.277344 C 38.234375 267.035156 35.058594 274.691406 35.058594 282.835938 C 35.058594 289.667969 37.292969 296.152344 41.410156 301.464844 C 37.835938 303.191406 34.453125 305.300781 31.308594 307.761719 C 30.25 308.589844 29.222656 309.460938 28.226562 310.363281 L 28.226562 77.125 C 28.230469 67.785156 35.828125 60.191406 45.167969 60.191406 Z M 217.925781 282.839844 C 217.925781 270.972656 227.578125 261.316406 239.449219 261.316406 C 251.316406 261.316406 260.972656 270.972656 260.972656 282.839844 C 260.972656 294.707031 251.316406 304.363281 239.449219 304.363281 C 227.578125 304.363281 217.925781 294.707031 217.925781 282.839844 Z M 134.058594 298.40625 C 129.007812 293.355469 126.226562 286.640625 126.226562 279.496094 C 126.226562 272.355469 129.007812 265.640625 134.058594 260.589844 C 139.109375 255.539062 145.824219 252.757812 152.96875 252.757812 C 160.109375 252.757812 166.824219 255.539062 171.875 260.589844 C 176.925781 265.640625 179.707031 272.355469 179.707031 279.496094 C 179.707031 286.640625 176.925781 293.355469 171.875 298.40625 C 166.824219 303.457031 160.109375 306.238281 152.96875 306.238281 C 145.824219 306.238281 139.109375 303.457031 134.058594 298.40625 Z M 44.027344 282.839844 C 44.027344 270.972656 53.683594 261.316406 65.550781 261.316406 C 77.417969 261.316406 87.074219 270.972656 87.074219 282.839844 C 87.074219 294.707031 77.417969 304.363281 65.550781 304.363281 C 53.683594 304.363281 44.027344 294.707031 44.027344 282.839844 Z M 18.96875 351.507812 C 18.96875 341.890625 21.875 332.660156 27.367188 324.816406 C 32.664062 317.253906 39.972656 311.492188 48.523438 308.136719 C 53.515625 311.511719 59.394531 313.328125 65.550781 313.328125 C 71.710938 313.328125 77.589844 311.511719 82.582031 308.136719 C 89.742188 310.949219 96.132812 315.53125 101.125 321.429688 C 100.410156 322.347656 99.714844 323.28125 99.046875 324.238281 C 92.773438 333.191406 88.894531 343.417969 87.632812 354.171875 L 18.96875 354.171875 Z M 209.796875 366.042969 L 96.140625 366.042969 L 96.140625 361.941406 C 96.140625 350.210938 99.683594 338.949219 106.386719 329.378906 C 109.617188 324.765625 113.507812 320.664062 117.945312 317.1875 C 122.414062 313.683594 127.355469 310.882812 132.636719 308.859375 C 138.5625 312.980469 145.59375 315.203125 152.96875 315.203125 C 160.339844 315.203125 167.371094 312.980469 173.300781 308.859375 C 178.570312 310.878906 183.507812 313.675781 187.976562 317.171875 C 192.414062 320.652344 196.304688 324.753906 199.539062 329.367188 C 206.25 338.941406 209.796875 350.207031 209.796875 361.941406 Z M 286.03125 354.171875 L 218.304688 354.171875 C 217.042969 343.410156 213.160156 333.179688 206.878906 324.222656 C 206.078125 323.074219 205.234375 321.957031 204.363281 320.867188 C 209.28125 315.234375 215.46875 310.867188 222.417969 308.136719 C 227.410156 311.511719 233.289062 313.328125 239.449219 313.328125 C 245.609375 313.328125 251.488281 311.511719 256.476562 308.136719 C 265.023438 311.492188 272.328125 317.246094 277.625 324.804688 C 283.125 332.652344 286.03125 341.886719 286.03125 351.507812 Z M 310.574219 149.816406 L 317.683594 148.972656 L 319.484375 153.503906 L 313.742188 157.777344 C 312.625 158.609375 311.957031 159.914062 311.9375 161.308594 L 311.804688 170.96875 C 311.785156 172.363281 312.417969 173.6875 313.511719 174.550781 L 319.136719 178.980469 L 317.207031 183.460938 L 310.128906 182.421875 C 308.746094 182.21875 307.351562 182.671875 306.351562 183.644531 L 299.425781 190.382812 C 298.425781 191.351562 297.9375 192.734375 298.101562 194.121094 L 298.941406 201.230469 L 294.414062 203.03125 L 290.140625 197.289062 C 289.308594 196.171875 288 195.503906 286.605469 195.484375 L 276.945312 195.351562 C 276.925781 195.351562 276.90625 195.351562 276.882812 195.351562 C 275.511719 195.351562 274.214844 195.980469 273.363281 197.058594 L 268.933594 202.679688 L 264.457031 200.753906 L 265.496094 193.671875 C 265.695312 192.292969 265.246094 190.898438 264.273438 189.898438 L 257.535156 182.972656 C 256.5625 181.972656 255.179688 181.484375 253.796875 181.648438 L 246.6875 182.488281 L 244.882812 177.960938 L 250.625 173.6875 C 251.742188 172.855469 252.410156 171.546875 252.429688 170.152344 L 252.5625 160.492188 C 252.582031 159.097656 251.953125 157.773438 250.855469 156.910156 L 245.234375 152.480469 L 247.160156 148.003906 L 254.242188 149.042969 C 255.621094 149.242188 257.015625 148.792969 258.015625 147.820312 L 264.941406 141.082031 C 265.941406 140.109375 266.433594 138.726562 266.269531 137.34375 L 265.425781 130.234375 L 269.957031 128.429688 L 274.230469 134.171875 C 275.0625 135.292969 276.367188 135.957031 277.761719 135.976562 L 287.421875 136.109375 C 288.820312 136.132812 290.140625 135.5 291.003906 134.402344 L 295.433594 128.78125 L 299.910156 130.707031 L 298.875 137.789062 C 298.671875 139.167969 299.121094 140.566406 300.097656 141.566406 L 306.832031 148.488281 C 307.808594 149.488281 309.191406 149.980469 310.574219 149.816406 Z M 346.925781 113.3125 C 341.050781 119.191406 333.234375 122.425781 324.921875 122.425781 C 316.609375 122.425781 308.796875 119.1875 302.917969 113.3125 C 297.042969 107.4375 293.804688 99.621094 293.804688 91.308594 C 293.804688 82.996094 297.042969 75.179688 302.917969 69.304688 C 308.796875 63.425781 316.609375 60.191406 324.921875 60.191406 C 333.234375 60.191406 341.050781 63.425781 346.925781 69.304688 C 352.804688 75.179688 356.042969 82.996094 356.042969 91.308594 C 356.042969 99.621094 352.804688 107.433594 346.925781 113.3125 Z M 346.925781 113.3125 " fill-opacity="1" fill-rule="nonzero"/></g><path fill="#f8fafc" d="M 329.40625 89.453125 L 329.40625 70.308594 C 329.40625 67.832031 327.398438 65.824219 324.921875 65.824219 C 322.449219 65.824219 320.441406 67.832031 320.441406 70.308594 L 320.441406 91.308594 C 320.441406 92.496094 320.914062 93.636719 321.753906 94.476562 L 331.484375 104.207031 C 332.359375 105.082031 333.503906 105.519531 334.652344 105.519531 C 335.796875 105.519531 336.945312 105.082031 337.820312 104.207031 C 339.570312 102.453125 339.570312 99.617188 337.820312 97.867188 Z M 329.40625 89.453125 " fill-opacity="1" fill-rule="nonzero"/></svg>