<svg xmlns="http://www.w3.org/2000/svg" xmlns:xlink="http://www.w3.org/1999/xlink" width="500" zoomAndPan="magnify" viewBox="0 0 375 374.999991" height="500" preserveAspectRatio="xMidYMid meet" version="1.0"><path fill="#f8fafc" d="M 116.523438 241.308594 C 104.859375 235.867188 94.769531 227.441406 87.339844 216.941406 C 86.46875 215.703125 85.042969 214.964844 83.527344 214.964844 L 53.824219 214.964844 C 52.304688 214.964844 50.890625 215.703125 50.011719 216.941406 C 42.582031 227.441406 32.488281 235.867188 20.828125 241.308594 C 19.1875 242.078125 18.136719 243.726562 18.136719 245.539062 L 18.136719 260.757812 C 18.136719 279.695312 22.3125 297.347656 30.550781 313.210938 C 38.816406 329.113281 50.75 342.464844 66.046875 352.898438 C 66.839844 353.441406 67.757812 353.707031 68.675781 353.707031 C 69.59375 353.707031 70.511719 353.433594 71.304688 352.898438 C 86.601562 342.472656 98.542969 329.113281 106.796875 313.210938 C 115.035156 297.347656 119.214844 279.695312 119.214844 260.757812 L 119.214844 245.539062 C 119.214844 243.726562 118.164062 242.078125 116.523438 241.308594 Z M 109.878906 260.757812 C 109.878906 294.820312 95.273438 324.015625 68.675781 343.328125 C 42.074219 324.007812 27.472656 294.820312 27.472656 260.757812 L 27.472656 248.449219 C 38.738281 242.691406 48.585938 234.414062 56.195312 224.300781 L 81.152344 224.300781 C 88.761719 234.414062 98.613281 242.691406 109.878906 248.449219 Z M 353.621094 239.578125 C 339.5 223.382812 320.703125 214.09375 302.046875 214.09375 L 273.664062 214.09375 L 273.664062 191.5 C 282.371094 183.53125 288.46875 172.78125 290.570312 160.675781 L 295.378906 160.675781 C 309.664062 160.675781 321.285156 149.050781 321.285156 134.765625 C 321.285156 125.515625 316.414062 117.394531 309.101562 112.8125 C 315.414062 111.105469 320.074219 105.351562 320.074219 98.511719 C 320.074219 90.792969 314.136719 84.4375 306.597656 83.753906 C 305.171875 62.265625 293.769531 42.527344 275.710938 30.40625 L 275.710938 27.742188 C 275.710938 20.1875 269.5625 14.050781 262.019531 14.050781 L 254.820312 14.050781 C 254.175781 10.945312 252.6875 8.097656 250.417969 5.65625 C 246.917969 1.898438 242.394531 -0.0078125 236.980469 -0.0078125 C 231.566406 -0.0078125 227.046875 1.898438 223.546875 5.65625 C 221.265625 8.097656 219.789062 10.945312 219.140625 14.042969 L 211.945312 14.042969 C 204.390625 14.042969 198.246094 20.1875 198.246094 27.734375 L 198.246094 30.390625 C 180.179688 42.527344 168.789062 62.28125 167.363281 83.746094 C 159.820312 84.421875 153.882812 90.777344 153.882812 98.503906 C 153.882812 105.34375 158.550781 111.097656 164.859375 112.804688 C 157.546875 117.386719 152.675781 125.515625 152.675781 134.757812 C 152.675781 149.042969 164.300781 160.667969 178.582031 160.667969 L 183.390625 160.667969 C 185.492188 172.773438 191.59375 183.53125 200.296875 191.492188 L 200.296875 214.085938 L 171.917969 214.085938 C 158.222656 214.085938 144.71875 218.894531 132.703125 227.996094 C 117.628906 223.738281 104.984375 213.375 97.890625 199.371094 C 97.09375 197.800781 95.484375 196.8125 93.726562 196.8125 L 43.644531 196.8125 C 41.886719 196.8125 40.277344 197.800781 39.484375 199.371094 C 32.210938 213.734375 19.101562 224.285156 3.507812 228.328125 C 1.445312 228.867188 0.015625 230.71875 0.015625 232.851562 L 0.015625 260.75 C 0.015625 309.453125 24.21875 350.875 66.417969 374.402344 C 67.125 374.796875 67.914062 374.992188 68.691406 374.992188 C 69.46875 374.992188 70.253906 374.796875 70.960938 374.402344 C 81.441406 368.558594 90.800781 361.609375 98.960938 353.730469 L 98.960938 370.324219 C 98.960938 372.898438 101.054688 374.992188 103.628906 374.992188 L 370.339844 374.992188 C 372.914062 374.992188 375.007812 372.898438 375.007812 370.324219 L 375.007812 294.359375 C 375.007812 275.128906 367.210938 255.15625 353.628906 239.570312 Z M 365.664062 294.367188 L 365.664062 324.902344 L 329.441406 324.902344 L 329.441406 231.222656 C 351.085938 244.0625 365.664062 270.605469 365.664062 294.367188 Z M 231.472656 365.664062 C 231.433594 365.617188 231.402344 365.570312 231.355469 365.523438 L 153.84375 288.011719 L 153.84375 257.28125 L 232.164062 335.601562 C 232.203125 335.640625 232.257812 335.671875 232.296875 335.710938 L 232.296875 365.65625 L 231.464844 365.65625 Z M 137.347656 260.757812 L 137.347656 236.210938 C 139.675781 234.382812 142.0625 232.742188 144.507812 231.292969 L 144.507812 324.910156 L 121.160156 324.910156 C 131.710938 306.007812 137.347656 284.238281 137.347656 260.765625 Z M 153.851562 301.214844 L 192.316406 339.679688 L 153.851562 339.679688 Z M 153.851562 349.015625 L 201.652344 349.015625 L 218.300781 365.664062 L 153.851562 365.664062 Z M 236.972656 240.09375 C 255.109375 240.09375 269.371094 233.191406 272.839844 223.429688 L 278.152344 223.429688 L 236.964844 290.027344 L 195.777344 223.429688 L 201.089844 223.429688 C 204.5625 233.191406 218.824219 240.09375 236.957031 240.09375 Z M 241.640625 365.664062 L 241.640625 335.703125 C 241.71875 335.632812 241.8125 335.578125 241.890625 335.5 L 320.105469 257.289062 L 320.105469 288.019531 L 242.449219 365.664062 Z M 320.105469 339.679688 L 281.648438 339.679688 L 320.105469 301.222656 Z M 272.3125 349.015625 L 320.105469 349.015625 L 320.105469 365.664062 L 255.652344 365.664062 L 272.304688 349.015625 Z M 320.105469 226.742188 L 320.105469 244.085938 L 241.640625 322.546875 L 241.640625 300.234375 L 289.132812 223.429688 L 302.039062 223.429688 C 308.339844 223.429688 314.402344 224.609375 320.097656 226.742188 Z M 295.378906 151.339844 L 291.386719 151.339844 L 291.386719 118.203125 L 295.378906 118.203125 C 304.511719 118.203125 311.949219 125.632812 311.949219 134.773438 C 311.949219 143.914062 304.519531 151.347656 295.378906 151.347656 Z M 230.367188 12.027344 C 232.101562 10.167969 234.140625 9.335938 236.972656 9.335938 C 239.804688 9.335938 241.84375 10.167969 243.578125 12.027344 C 245.265625 13.839844 246.007812 15.925781 245.828125 18.390625 L 243.585938 50.136719 C 243.546875 50.703125 243.082031 51.136719 242.511719 51.136719 L 231.417969 51.136719 C 230.84375 51.136719 230.382812 50.710938 230.34375 50.136719 L 228.105469 18.390625 C 227.933594 15.917969 228.664062 13.839844 230.351562 12.027344 Z M 198.246094 42.074219 L 198.246094 55.8125 C 198.246094 58.390625 200.335938 60.480469 202.914062 60.480469 C 205.488281 60.480469 207.582031 58.390625 207.582031 55.8125 L 207.582031 27.757812 C 207.582031 25.355469 209.535156 23.402344 211.945312 23.402344 L 219.117188 23.402344 L 221.046875 50.804688 C 221.429688 56.234375 225.996094 60.480469 231.433594 60.480469 L 242.527344 60.480469 C 247.972656 60.480469 252.535156 56.226562 252.914062 50.804688 L 254.84375 23.402344 L 262.019531 23.402344 C 264.421875 23.402344 266.375 25.355469 266.375 27.757812 L 266.375 55.8125 C 266.375 58.390625 268.46875 60.480469 271.042969 60.480469 C 273.617188 60.480469 275.710938 58.390625 275.710938 55.8125 L 275.710938 42.066406 C 288.160156 52.507812 295.96875 67.507812 297.230469 83.699219 L 176.730469 83.699219 C 177.992188 67.523438 185.796875 52.523438 198.253906 42.074219 Z M 163.21875 98.519531 C 163.21875 95.492188 165.675781 93.035156 168.703125 93.035156 L 305.242188 93.035156 C 308.269531 93.035156 310.730469 95.492188 310.730469 98.519531 C 310.730469 101.546875 308.269531 104.003906 305.242188 104.003906 L 168.703125 104.003906 C 165.675781 104.003906 163.21875 101.546875 163.21875 98.519531 Z M 162.003906 134.773438 C 162.003906 125.640625 169.433594 118.203125 178.578125 118.203125 L 182.566406 118.203125 L 182.566406 151.339844 L 178.578125 151.339844 C 169.441406 151.339844 162.003906 143.90625 162.003906 134.765625 Z M 191.902344 151.363281 L 191.902344 113.339844 L 282.042969 113.339844 L 282.042969 151.363281 C 282.042969 176.210938 261.824219 196.429688 236.972656 196.429688 C 212.125 196.429688 191.902344 176.210938 191.902344 151.363281 Z M 236.972656 205.769531 C 246.941406 205.769531 256.285156 203.058594 264.320312 198.359375 L 264.320312 218.761719 C 264.320312 224.425781 252.628906 230.757812 236.972656 230.757812 C 221.320312 230.757812 209.625 224.425781 209.625 218.761719 L 209.625 198.359375 C 217.671875 203.058594 227.007812 205.769531 236.972656 205.769531 Z M 184.816406 223.429688 L 232.3125 300.226562 L 232.3125 322.53125 L 153.851562 244.070312 L 153.851562 226.773438 C 159.75 224.5625 165.824219 223.421875 171.910156 223.421875 L 184.816406 223.421875 Z M 68.675781 364.957031 C 30.925781 342.921875 9.335938 305.089844 9.335938 260.757812 L 9.335938 236.367188 C 25.050781 231.339844 38.324219 220.550781 46.429688 206.164062 L 90.925781 206.164062 C 99.03125 220.550781 112.304688 231.339844 128.019531 236.367188 L 128.019531 260.757812 C 128.019531 305.089844 106.429688 342.921875 68.683594 364.957031 Z M 108.289062 343.675781 C 110.820312 340.636719 113.199219 337.492188 115.417969 334.238281 L 144.515625 334.238281 L 144.515625 365.664062 L 108.289062 365.664062 Z M 329.441406 365.664062 L 329.441406 334.238281 L 365.664062 334.238281 L 365.664062 365.664062 Z M 62.722656 294.140625 L 92.234375 264.632812 C 94.054688 262.8125 97.011719 262.8125 98.832031 264.632812 C 100.652344 266.453125 100.652344 269.410156 98.832031 271.230469 L 66.023438 304.039062 C 65.113281 304.949219 63.914062 305.40625 62.722656 305.40625 C 61.53125 305.40625 60.335938 304.949219 59.425781 304.039062 L 38.519531 283.132812 C 36.699219 281.3125 36.699219 278.355469 38.519531 276.527344 C 40.339844 274.699219 43.296875 274.707031 45.125 276.527344 L 62.730469 294.125 Z M 62.722656 294.140625 " fill-opacity="1" fill-rule="nonzero"/></svg>