<svg xmlns="http://www.w3.org/2000/svg" xmlns:xlink="http://www.w3.org/1999/xlink" width="300" zoomAndPan="magnify" viewBox="0 0 224.87999 74.999997" height="100" preserveAspectRatio="xMidYMid meet" version="1.0"><defs><clipPath id="d44cbe79a4"><path d="M 5 0.0195312 L 224 0.0195312 L 224 74.980469 L 5 74.980469 Z M 5 0.0195312 " clip-rule="nonzero"/></clipPath><clipPath id="dda411d45e"><path d="M 221.507812 -2.726562 L 223.3125 69.960938 L 5.996094 75.355469 L 4.191406 2.667969 Z M 221.507812 -2.726562 " clip-rule="nonzero"/></clipPath><clipPath id="2d3431a433"><path d="M 1 1 L 217 1 L 217 71 L 1 71 Z M 1 1 " clip-rule="nonzero"/></clipPath><clipPath id="5ab16a38af"><path d="M 216.507812 -2.726562 L 218.3125 69.960938 L 0.996094 75.355469 L -0.808594 2.667969 Z M 216.507812 -2.726562 " clip-rule="nonzero"/></clipPath><clipPath id="a542db1b77"><path d="M -0.867188 2.667969 L 0.9375 75.359375 L 218.253906 69.964844 L 216.449219 -2.726562 Z M -0.867188 2.667969 " clip-rule="nonzero"/></clipPath><clipPath id="7d0956c821"><rect x="0" width="219" y="0" height="75"/></clipPath></defs><g clip-path="url(#d44cbe79a4)"><g clip-path="url(#dda411d45e)"><g transform="matrix(1, 0, 0, 1, 5, -0.000000000000000847)"><g clip-path="url(#7d0956c821)"><g clip-path="url(#2d3431a433)"><g clip-path="url(#5ab16a38af)"><g clip-path="url(#a542db1b77)"><path fill="#f8fafc" d="M 166.023438 67.171875 C 178.097656 63.320312 190.636719 61.328125 203.273438 61.363281 C 183.996094 41.246094 159.902344 25.828125 133.726562 16.328125 C 106.429688 6.417969 76.230469 2.453125 47.410156 6.867188 C 31.792969 9.261719 15.652344 14.707031 5.542969 27.539062 C 4.214844 29.222656 0.0078125 29.21875 2.035156 26.640625 C 11.28125 14.910156 25.207031 8.371094 39.484375 5.019531 C 54.199219 1.566406 69.71875 0.925781 84.761719 1.902344 C 115.269531 3.878906 145.191406 13.460938 171.246094 29.4375 C 183.929688 37.210938 195.601562 46.53125 206 57.148438 C 205.289062 41.023438 207.207031 24.847656 211.707031 9.324219 C 212.039062 8.1875 213.207031 7.300781 214.347656 7.078125 C 215.175781 6.914062 216.523438 7.203125 216.1875 8.363281 C 211.15625 25.707031 209.378906 43.789062 210.960938 61.777344 C 210.980469 61.992188 210.9375 62.207031 210.855469 62.414062 C 211.296875 63.699219 208.472656 65.242188 207.542969 65.195312 C 193.632812 64.421875 179.675781 66.101562 166.394531 70.339844 C 163.25 71.34375 163.535156 67.96875 166.023438 67.171875 Z M 166.023438 67.171875 " fill-opacity="1" fill-rule="nonzero"/></g></g></g></g></g></g></g></svg>