<?xml version="1.0" encoding="UTF-8"?>
<svg version="1.1" xmlns="http://www.w3.org/2000/svg" width="16" height="16">
<path d="M0 0 C2.375 1.875 2.375 1.875 4 5 C4.3227533 8.4097324 4.18345706 11.56018005 4 15 C-0.62 15 -5.24 15 -10 15 C-10.14610285 5.06500647 -10.14610285 5.06500647 -9 2 C-5.50434664 -0.33043558 -4.1134271 -0.58763244 0 0 Z " fill="#1171D7" transform="translate(11,0)"/>
<path d="M0 0 C4 4 4 4 4.390625 6.578125 C4.34421875 7.45984375 4.2978125 8.3415625 4.25 9.25 C4.21390625 10.14203125 4.1778125 11.0340625 4.140625 11.953125 C4.09421875 12.62859375 4.0478125 13.3040625 4 14 C2.68 14 1.36 14 0 14 C0 9.38 0 4.76 0 0 Z " fill="#0E3CA7" transform="translate(11,1)"/>
<path d="M0 0 C0.99 0.33 1.98 0.66 3 1 C3 4.96 3 8.92 3 13 C1.68 13 0.36 13 -1 13 C-1.0272415 11.58344207 -1.04650467 10.16672955 -1.0625 8.75 C-1.07410156 7.96109375 -1.08570312 7.1721875 -1.09765625 6.359375 C-1.00385306 4.09308998 -0.63241063 2.1711105 0 0 Z " fill="#861EE3" transform="translate(2,2)"/>
<path d="M0 0 C1.4540625 0.0309375 1.4540625 0.0309375 2.9375 0.0625 C2.6075 2.3725 2.2775 4.6825 1.9375 7.0625 C0.6175 7.3925 -0.7025 7.7225 -2.0625 8.0625 C-2.7225 5.7525 -3.3825 3.4425 -4.0625 1.0625 C-3.0625 0.0625 -3.0625 0.0625 0 0 Z " fill="#30ABE6" transform="translate(8.0625,-0.0625)"/>
<path d="M0 0 C1.32 1.32 2.64 2.64 4 4 C3.34 6.31 2.68 8.62 2 11 C1.67 11 1.34 11 1 11 C0.67 7.37 0.34 3.74 0 0 Z " fill="#1B63C6" transform="translate(11,1)"/>
<path d="" fill="#FF00FF" transform="translate(0,0)"/>
<path d="" fill="#000000" transform="translate(0,0)"/>
</svg>
